<svg width="435" height="930" viewBox="0 0 435 930" fill="none" xmlns="http://www.w3.org/2000/svg">
<path d="M375.571 328.597C373.44 326.902 370.029 323.937 365.766 320.548C349.566 306.568 322.281 282.845 303.097 282.845C295.423 282.845 289.881 286.658 286.471 293.436C282.207 302.332 291.586 323.09 298.407 336.646C300.113 340.035 301.392 343 302.244 345.118C303.95 349.355 305.655 353.167 306.934 356.98C315.887 380.703 325.266 404.85 332.087 431.115C332.939 434.081 333.366 437.046 334.218 440.435C337.203 454.415 341.466 472.207 351.271 480.68C355.108 484.069 358.945 486.187 362.355 487.458C364.061 487.882 365.766 488.305 367.045 488.305C378.556 488.305 386.656 475.173 394.329 462.464C396.035 459.498 397.74 456.533 399.872 453.991L401.577 451.449C430.993 406.968 448.898 380.28 394.756 343C389.64 338.764 382.819 333.68 375.571 328.597ZM399.872 449.755L398.166 452.297C396.461 455.262 394.329 458.227 392.624 460.769C385.377 473.055 377.703 485.34 367.045 485.34C365.766 485.34 364.487 484.916 362.782 484.916C359.371 484.069 355.961 481.951 352.55 478.562C343.171 470.513 339.334 453.144 336.35 439.588C335.497 436.199 335.071 433.233 334.218 430.268C327.397 403.579 318.018 379.432 308.639 355.709C307.36 352.32 305.655 348.084 303.95 343.848C303.097 341.729 301.818 338.764 300.113 335.375C294.144 323.09 284.339 301.908 288.176 293.859C291.586 287.505 296.276 284.116 303.097 284.116C321.429 284.116 348.287 307.415 364.061 320.972C368.324 324.784 371.734 327.75 373.866 329.021C381.114 334.104 387.935 339.188 393.05 342.577C445.914 379.856 428.435 406.121 399.872 449.755Z" fill="#C4C4C4" fill-opacity="0.4"/>
<path d="M410.53 281.151C401.151 274.373 391.772 266.747 381.967 258.698C351.698 234.128 317.166 206.168 286.045 206.168C280.076 206.168 274.108 207.439 268.139 209.558C213.571 229.892 221.244 287.505 231.05 320.125C237.018 340.035 244.265 359.522 251.513 378.585C260.039 400.614 268.992 423.49 274.96 446.79C278.797 460.769 280.503 475.596 282.208 490C287.75 533.634 292.866 575.149 351.698 575.149C356.388 575.149 361.503 574.726 366.619 574.302C373.44 573.455 378.982 572.607 383.672 570.913C399.446 565.829 404.135 556.509 410.957 542.106C413.088 537.87 415.646 532.786 418.63 527.703C423.32 519.654 428.436 512.029 433.551 504.403V502.285C428.009 510.334 422.467 518.383 417.351 526.855C414.367 531.939 411.809 537.023 409.678 541.259C402.856 555.239 398.167 564.558 382.819 569.218C378.13 570.489 373.014 571.76 366.193 572.184C361.077 572.607 355.961 573.031 351.272 573.031C293.719 573.031 288.603 534.057 283.061 488.729C281.355 474.325 279.224 459.498 275.813 445.519C269.845 422.219 260.892 399.343 252.366 377.315C245.118 358.251 237.444 338.764 231.902 319.277C222.523 287.082 214.849 230.739 268.566 210.405C274.108 208.287 280.076 207.439 286.045 207.439C316.74 207.439 350.845 235.399 381.114 259.546C390.92 267.595 400.299 275.22 410.104 281.998C417.351 287.082 423.32 291.741 428.009 295.131C429.715 296.401 431.846 297.672 433.978 298.943V297.249C432.273 295.978 430.567 295.13 428.862 293.86C423.746 290.471 417.778 286.234 410.53 281.151Z" fill="#C4C4C4" fill-opacity="0.4"/>
<path d="M411.383 318.43C406.267 315.041 399.872 310.381 392.625 305.297C382.393 298.096 373.014 290.047 362.782 281.998C360.651 280.303 358.093 278.185 355.108 275.643C338.056 261.24 314.608 241.329 292.866 241.329C286.897 241.329 281.355 243.024 276.239 245.989C238.723 268.865 261.318 323.937 274.96 356.557C276.666 360.369 277.945 364.182 279.224 367.571C288.176 390.447 297.129 414.17 303.524 438.741C304.803 443.401 306.082 448.908 307.361 454.838C313.329 481.527 321.429 517.959 341.893 531.092C345.303 533.21 348.714 534.481 352.551 534.904C353.829 534.904 354.682 535.328 355.961 535.328C381.114 535.328 405.84 497.625 424.172 469.665C427.583 464.582 430.567 459.922 433.125 456.109V453.991C430.141 458.228 426.73 463.311 422.893 468.818C404.988 496.354 379.835 533.634 355.535 533.634C354.682 533.634 353.403 533.633 352.551 533.21C349.14 532.786 345.729 531.515 342.319 529.397C322.282 516.688 314.182 480.256 308.213 453.991C306.934 448.06 305.655 442.553 304.376 437.893C297.982 412.899 288.603 389.176 280.076 366.3C278.797 362.911 277.092 359.098 275.813 355.286C262.597 322.666 240.429 268.442 276.666 245.989C281.355 243.024 286.897 241.753 292.439 241.753C313.755 241.753 336.777 261.24 353.829 275.643C356.387 277.762 358.945 279.88 361.503 281.998C371.735 290.47 381.54 298.096 391.346 305.297C398.167 310.381 404.988 315.041 410.104 318.43C416.925 323.09 423.32 327.326 430.567 332.41C431.42 332.833 431.846 333.257 432.699 333.681V331.986C432.272 331.562 431.846 331.139 430.993 331.139C425.025 327.326 418.204 322.666 411.383 318.43Z" fill="#C4C4C4" fill-opacity="0.4"/>
<path d="M189.696 618.783C192.254 621.748 196.517 626.408 208.028 627.255C250.66 630.644 315.034 636.151 369.603 685.292L370.029 685.716C388.787 702.661 403.709 723.843 414.793 749.26C417.777 756.038 422.893 760.275 428.435 760.275C430.14 760.275 431.419 759.851 433.125 759.427V757.733C431.419 758.58 430.14 759.004 428.435 759.004C423.319 759.004 418.63 755.191 415.645 748.837C404.561 723.419 389.214 701.814 370.456 684.869L370.029 684.445C315.46 634.881 250.66 629.797 208.028 626.408C196.944 625.561 192.68 621.325 190.549 618.359C185.007 611.157 184.58 600.567 185.007 597.178C190.975 571.336 198.223 539.14 195.665 503.556C190.975 443.824 167.101 392.565 143.654 342.577C124.896 302.756 104.006 257.427 111.253 237.093C124.469 200.237 177.759 147.707 200.354 126.95C214.423 113.817 231.476 107.039 250.66 107.039C261.744 107.039 271.123 109.157 277.092 111.275C316.313 123.984 371.735 152.791 433.551 192.188V190.494C371.735 151.096 316.313 122.29 277.518 110.004C271.549 107.886 261.744 105.768 250.66 105.768C231.049 105.768 213.996 112.546 199.502 126.102C176.907 146.86 123.617 199.814 110.401 236.669C102.727 257.851 124.043 303.179 142.801 343.424C165.822 392.989 190.122 444.248 194.812 503.979C197.37 539.141 190.122 571.336 184.154 597.178C183.301 600.143 184.154 611.581 189.696 618.783Z" fill="#C4C4C4" fill-opacity="0.4"/>
<path d="M270.271 580.656C280.076 585.74 293.292 588.282 306.081 590.4C315.46 592.094 325.266 593.789 333.366 596.754C338.482 598.449 344.024 601.414 349.992 604.38C362.356 610.311 375.998 617.089 388.787 617.089C391.345 617.089 393.477 616.665 395.609 616.241C396.035 616.241 396.888 615.818 397.314 615.818C415.219 610.31 425.025 587.858 433.551 567.1V563.288V563.711C425.025 584.893 415.646 608.616 397.314 614.123C396.888 614.123 396.035 614.547 395.609 614.547C393.477 614.97 391.345 615.394 388.787 615.394C376.424 615.394 362.782 608.616 350.845 602.685C344.877 599.72 339.334 597.178 334.219 595.06C326.119 592.094 316.313 590.4 306.508 588.705C293.718 586.587 280.502 584.469 271.123 578.962C250.234 567.524 252.365 546.343 254.497 524.314C255.349 515.418 256.202 506.521 255.776 498.472C250.233 428.15 223.802 371.807 198.222 317.159C186.712 292.589 185.859 265.477 195.665 240.906C206.323 214.641 229.344 193.036 257.907 182.022C266.86 178.633 276.239 176.938 285.618 176.938C326.545 176.938 365.34 208.287 399.445 235.823C409.251 243.448 418.204 251.073 427.156 257.428C429.288 259.122 431.419 260.393 433.551 262.088V260.393C431.846 259.122 430.141 257.851 428.009 256.58C419.483 250.226 410.103 243.024 400.724 234.975C366.619 207.016 327.824 175.667 286.044 175.667C276.239 175.667 266.86 177.362 257.907 180.751C228.917 191.765 205.896 213.37 194.812 240.059C184.58 265.053 185.433 292.165 197.37 317.159C222.949 371.384 248.955 427.726 254.497 498.049C254.923 506.098 254.07 514.994 253.218 523.89C250.66 546.342 248.528 568.795 270.271 580.656Z" fill="#C4C4C4" fill-opacity="0.4"/>
<path d="M242.56 603.108C251.087 605.227 259.613 607.345 268.139 609.039C312.903 619.206 351.272 628.103 389.641 662.84L390.493 663.687C399.446 671.736 406.267 675.549 411.809 675.549C412.662 675.549 413.514 675.549 414.367 675.125C422.893 673.007 426.73 661.569 431.42 646.742C432.273 644.624 432.699 642.082 433.551 639.964V635.728C432.273 639.117 430.994 642.93 430.141 646.319C425.878 660.722 421.615 672.16 413.941 673.854C408.399 675.125 401.151 671.313 391.346 662.416L390.493 661.569C351.698 626.832 312.903 617.935 268.566 607.345C260.466 605.65 251.939 603.532 242.987 601.414C211.865 593.789 216.981 564.558 222.097 536.175C224.228 523.89 226.786 511.181 225.934 500.59C220.818 435.351 195.665 381.551 171.365 329.444C168.381 323.09 165.396 317.159 162.412 311.228C146.638 280.727 133.422 254.462 152.607 221.843C167.102 197.272 188.844 177.362 210.16 158.298C213.997 154.909 217.834 151.52 221.671 147.708C229.771 140.082 240.855 136.27 254.497 136.27C306.935 136.27 387.935 191.765 434.404 225.232V224.384C387.509 190.918 307.361 135.846 254.497 135.846C240.429 135.846 228.918 139.659 220.818 147.708C216.981 151.097 213.144 154.486 209.734 158.298C188.418 177.785 166.675 197.696 152.18 222.266C132.57 255.309 146.638 283.269 161.986 312.923C164.97 318.854 167.954 324.784 170.938 331.139C195.239 383.245 220.392 436.622 225.507 501.861C226.36 512.452 224.228 525.161 221.671 537.446C215.702 565.405 210.16 595.059 242.56 603.108Z" fill="#C4C4C4" fill-opacity="0.4"/>
<path d="M375.572 924.219C381.114 927.609 390.067 929.727 400.725 929.727C410.104 929.727 421.614 928.032 433.551 924.643V921.678C421.614 925.49 410.104 927.185 400.725 927.185C390.919 927.185 382.393 925.49 377.277 922.101C352.124 906.003 341.04 878.044 329.529 848.39C319.298 822.548 309.066 796.284 288.603 777.644V776.797H287.75C264.302 756.462 232.755 746.295 191.402 746.295C150.902 746.295 108.696 756.039 74.5903 763.664C51.1428 768.748 31.1058 773.408 18.3162 773.408C10.6425 773.408 5.95291 771.713 4.24763 768.748C1.68972 764.511 3.82139 756.462 9.78986 745.024C39.2059 691.647 98.8906 564.135 94.6274 511.605C91.2168 470.089 71.1798 426.879 51.9954 385.364C23.8584 324.785 -5.55766 262.511 15.7583 203.203C40.0585 135.423 146.638 14.2647 222.523 3.67396C226.786 3.25033 231.902 2.82668 236.592 2.82668C286.045 2.82668 358.093 32.0571 433.551 74.42V71.4545C358.093 29.0917 286.045 0.284912 236.592 0.284912C231.476 0.284912 226.36 0.70856 222.097 1.13219C145.359 11.7229 37.5005 134.152 12.774 202.356C-8.96827 262.935 20.4478 325.632 49.0112 386.634C68.1955 428.15 88.2325 470.513 91.6431 511.605C95.48 558.628 43.4691 677.667 7.23192 743.754C-0.0155086 756.462 -1.72073 764.935 1.68982 770.442C4.24774 774.678 9.78986 776.797 18.3162 776.797C31.5321 776.797 51.9954 772.137 75.443 767.053C109.549 759.428 151.754 749.684 191.402 749.684C232.329 749.684 263.023 759.428 286.045 779.762C306.082 797.978 316.74 824.243 326.545 850.084C338.482 879.315 349.993 907.698 375.572 924.219Z" fill="#C4C4C4" fill-opacity="0.4"/>
<path d="M87.3798 708.592C90.364 712.829 98.0379 714.947 112.106 714.947C121.059 714.947 131.717 714.099 144.08 713.252C159.428 712.405 176.907 711.134 194.812 711.134C251.939 711.134 290.308 722.996 315.887 749.261C339.761 767.477 352.977 797.131 364.487 823.396C378.556 855.168 390.919 882.704 417.777 882.704C420.762 882.704 423.746 882.28 426.73 881.857C428.862 881.433 430.993 881.009 433.125 880.162V878.044C430.567 878.891 428.435 879.315 426.304 879.738C423.32 880.162 420.335 880.586 417.777 880.586C392.198 880.586 380.261 853.473 366.619 822.548C355.108 796.284 341.466 766.206 317.592 747.566C291.587 721.301 252.792 709.016 195.239 709.016C177.333 709.016 159.854 710.287 144.507 711.134C132.143 711.981 121.485 712.829 112.533 712.829C99.3168 712.829 92.0693 711.134 89.5114 707.321C88.2324 705.203 88.2324 702.661 89.5114 699.272C116.796 627.256 139.391 536.175 137.259 507.792C133.422 458.651 111.68 412.052 90.7904 367.147C65.2113 312.076 40.911 260.393 56.2585 217.183C77.5745 157.028 175.628 52.3913 228.918 45.1896C231.476 44.7659 234.46 44.766 237.444 44.766C278.797 44.766 351.698 73.9963 434.404 122.714V120.172C352.124 71.8782 279.224 42.6478 237.444 42.6478C234.46 42.6478 231.476 42.6478 228.492 43.0714C174.775 50.2731 75.8692 155.757 54.1269 216.336C38.3531 260.393 63.0797 312.923 88.6588 367.995C109.548 412.899 131.291 459.075 135.128 507.792C137.259 532.363 116.796 620.901 87.8061 698.425C85.6745 702.661 85.6745 706.05 87.3798 708.592Z" fill="#C4C4C4" fill-opacity="0.4"/>
<path d="M151.754 653.521C159.854 664.959 176.481 666.23 199.502 667.924C202.06 667.924 204.618 668.348 207.176 668.348C214.423 668.771 222.097 669.195 230.197 669.619C267.713 670.889 310.771 672.16 349.14 707.322L349.566 707.745C370.882 726.385 383.672 759.004 394.756 788.235C406.267 817.465 415.646 842.459 431.42 842.459C431.846 842.459 432.272 842.459 432.699 842.459V841.188C432.272 841.188 431.846 841.188 431.42 841.188C416.925 841.188 407.12 816.194 396.035 787.811C384.951 758.581 372.161 725.961 350.419 706.898L349.993 706.474C311.198 671.313 268.139 669.618 230.197 668.348C222.097 667.924 214.423 667.924 207.176 667.077C204.618 666.653 202.06 666.653 199.502 666.653C176.481 664.959 160.281 663.688 152.607 652.673C145.359 642.506 146.638 623.019 156.017 590.4C164.97 559.899 167.954 532.363 165.823 505.674C161.56 451.026 138.538 402.309 116.37 354.862C93.3485 305.298 71.6062 258.698 82.6905 226.926C101.875 173.549 193.534 79.5034 231.476 74.4199C232.329 74.4199 233.608 73.9962 236.166 73.9962C268.139 73.9962 339.761 100.261 433.125 157.028V155.333C340.187 98.5667 268.139 72.7253 236.166 72.7253C234.034 72.7253 232.329 72.7254 231.476 73.149C193.107 78.2325 100.596 173.125 81.4115 226.503C69.9009 259.122 91.6431 305.721 115.091 355.71C137.259 402.732 159.854 451.873 164.117 506.098C166.249 532.786 162.839 560.322 154.312 590.4C145.359 623.867 144.507 642.506 151.754 653.521Z" fill="#C4C4C4" fill-opacity="0.4"/>
</svg>
