<svg width="570" height="1352" viewBox="0 0 570 1352" fill="none" xmlns="http://www.w3.org/2000/svg">
<path d="M-17.9814 1146.71C-11.6098 1007.42 78.0468 905.666 149.954 823.811L154.96 817.931C163.152 809.339 182.722 785.823 180.902 757.784C179.991 740.599 171.344 725.223 155.416 711.656C145.858 703.515 137.211 695.827 128.564 689.044C91.245 657.387 62.118 632.062 16.607 600.857C-0.232075 589.552 -16.616 578.698 -32.5449 568.296V570.105C-16.616 580.055 -0.687183 590.908 15.6968 602.214C61.2078 633.419 90.7899 658.744 127.654 690.401C135.846 697.636 144.948 705.324 154.505 713.012C169.979 726.127 178.626 741.503 179.536 758.236C180.902 785.823 162.242 808.887 153.595 817.479L148.589 823.358C76.6815 905.213 -12.9752 1006.97 -19.8018 1147.16C-20.712 1162.08 -26.1733 1171.13 -33 1174.29V1176.1C-25.2631 1172.49 -18.8916 1163.44 -17.9814 1146.71Z" fill="#C4C4C4" fill-opacity="0.4"/>
<path d="M13.8768 1148.06C19.7932 1019.63 105.354 922.398 174.076 844.613L179.082 838.734C193.645 822.454 205.023 807.982 213.67 795.772C224.138 780.395 244.162 752.357 197.286 707.133C146.769 658.743 92.1557 613.972 34.8119 574.627C11.6012 558.347 -11.1543 543.875 -32.5444 531.212V533.021C-11.1543 546.136 10.691 560.156 33.9016 575.984C91.2455 615.329 145.859 660.1 196.376 708.49C242.342 752.809 223.227 780.395 212.76 795.319C204.113 807.53 192.735 822.001 178.172 838.282L173.165 844.161C103.989 921.946 18.4279 1019.18 12.5115 1148.06C9.7808 1207.76 -1.14184 1242.58 -21.1667 1257.51C-25.2627 1260.67 -28.9036 1262.03 -32.5444 1262.48V1263.84C-28.9036 1263.39 -24.8076 1262.03 -20.2565 1258.41C0.223488 1243.49 11.1461 1208.21 13.8768 1148.06Z" fill="#C4C4C4" fill-opacity="0.4"/>
<path d="M569.111 229.57C560.464 194.748 489.012 185.703 406.182 174.85C385.702 172.136 364.767 169.423 344.287 166.257C253.72 152.238 170.89 107.014 90.3353 63.1469C50.2856 40.9873 9.32568 18.8276 -32.5444 0.285889V3.90379C8.87057 21.9933 49.3754 44.1529 88.9699 65.8603C169.524 109.727 252.81 154.951 343.832 169.423C364.311 172.588 385.702 175.302 405.727 178.015C484.005 187.964 557.733 197.914 565.925 230.475C572.297 255.8 539.074 294.24 463.981 348.509C358.85 424.032 270.559 459.307 185.908 459.307C138.122 459.307 90.3353 447.549 44.8243 424.032C16.6074 409.561 -8.4236 391.924 -32.5444 373.834V377.904C-8.87872 395.541 15.6972 412.726 43.4589 426.746C89.8801 450.262 137.667 462.473 186.363 462.473C271.469 462.473 360.215 427.198 466.256 351.222C543.625 295.145 575.938 256.705 569.111 229.57Z" fill="#C4C4C4" fill-opacity="0.4"/>
<path d="M64.3936 386.044C98.9819 403.681 128.564 411.822 156.781 411.822C186.818 411.822 213.215 402.777 243.707 392.376C261.001 386.496 281.026 379.713 303.326 374.286C314.704 371.573 324.717 371.12 331.088 371.12C335.639 371.12 339.735 371.12 343.831 371.573C347.472 371.573 351.113 372.025 354.754 372.025C373.413 372.025 387.977 367.502 403.906 346.247C414.828 331.776 418.924 320.47 422.565 310.52C428.026 295.597 432.122 283.838 455.788 267.106C461.705 262.583 470.352 259.418 478.999 256.252C492.652 250.825 504.03 246.303 504.485 238.615C504.94 232.283 497.658 225.5 481.274 216.455C462.16 206.053 434.398 204.697 409.822 204.697C398.899 204.697 387.522 205.149 376.599 205.149C365.676 205.601 353.844 205.601 342.921 205.601C318.345 205.601 301.051 203.792 287.397 200.174C208.208 179.371 134.025 138.67 68.4895 102.943C34.3563 84.4015 0.678146 66.312 -32.5449 50.4836V53.1971C0.223034 68.5732 33.4461 86.6627 67.5793 105.204C133.115 140.931 207.753 181.633 286.942 202.888C301.051 206.506 318.345 208.315 343.376 208.315C354.299 208.315 366.132 207.862 377.054 207.862C387.977 207.41 399.355 207.41 410.277 207.41C434.398 207.41 461.705 208.767 480.364 219.168C495.383 227.309 502.665 233.64 502.209 239.067C501.754 245.398 490.377 249.921 478.089 254.443C469.441 257.609 460.794 261.227 454.423 265.749C430.302 282.934 425.751 295.597 420.29 310.068C416.649 320.017 412.553 330.871 402.085 345.343C386.611 366.146 372.503 370.216 354.754 370.216C351.113 370.216 347.472 370.216 343.831 369.764C339.735 369.764 335.639 369.311 331.088 369.311C324.717 369.311 314.249 369.764 302.871 372.477C280.571 377.904 260.546 384.688 243.252 390.567C212.759 400.968 186.363 409.561 156.781 409.561C128.564 409.561 99.437 401.42 65.3038 383.783C33.9012 367.955 5.68436 346.7 -21.6222 325.897C-25.2631 323.183 -29.3591 320.017 -33 317.304V320.017C-29.8142 322.731 -26.1733 324.992 -22.9876 327.706C4.77414 348.961 32.991 370.216 64.3936 386.044Z" fill="#C4C4C4" fill-opacity="0.4"/>
<path d="M85.3291 345.343C119.007 362.528 151.775 370.668 186.363 370.668C205.478 370.668 246.893 362.98 282.847 349.865C314.249 338.559 352.024 319.565 352.024 294.24C352.024 264.392 293.769 247.659 259.181 237.71C251.444 235.449 245.073 233.64 240.522 232.283C178.172 209.671 116.277 181.633 46.1896 143.192C19.3381 128.721 -6.60316 114.249 -32.5444 101.586V102.943C-7.05827 115.606 19.3381 130.077 45.7345 144.549C116.277 182.537 178.172 211.028 240.522 233.64C245.073 235.449 251.444 237.258 259.181 239.067C293.769 249.016 351.113 265.297 351.113 294.24C351.113 338.107 226.413 369.311 186.363 369.311C152.23 369.311 119.462 361.171 86.2393 343.986C58.4776 329.967 32.0812 309.616 6.13992 290.622C-6.14805 281.125 -18.8911 271.628 -32.5444 262.131V263.94C-19.3462 272.985 -7.05827 282.482 5.2297 291.527C31.171 310.973 57.5674 331.323 85.3291 345.343Z" fill="#C4C4C4" fill-opacity="0.4"/>
<path d="M99.8921 317.304C129.019 332.228 157.236 339.464 186.363 339.464C211.394 339.464 244.617 332.228 257.36 315.495C262.822 308.259 264.642 300.119 261.911 290.622C255.995 268.915 210.029 253.086 176.351 241.781C165.428 238.163 155.871 234.997 150.409 232.283C111.27 214.194 73.0406 193.391 35.7216 173.04L31.6256 170.779C9.32524 159.021 -11.6098 147.715 -32.5449 136.861V138.218C-12.0649 148.62 8.87012 160.378 30.2603 171.684L34.3563 173.945C71.6753 194.748 110.36 215.551 149.499 233.64C155.416 236.354 164.973 239.519 175.895 243.137C207.298 253.539 255.085 269.819 260.546 291.074C262.822 300.119 261.456 307.807 255.995 314.591C243.707 330.419 210.939 337.655 185.908 337.655C157.236 337.655 129.019 330.419 100.347 315.947C74.8611 302.833 49.3749 283.839 24.799 265.297C7.04969 251.73 -12.0649 237.71 -33 224.143V225.952C-12.52 239.519 6.59457 253.539 23.8888 266.654C48.9198 285.195 74.406 304.189 99.8921 317.304Z" fill="#C4C4C4" fill-opacity="0.4"/>
<path d="M114.456 289.266C123.558 293.788 149.044 301.928 167.704 301.928C174.531 301.928 179.537 301.024 182.723 298.763C190.004 294.24 193.19 289.718 192.28 285.648C190.915 276.151 169.98 270.272 153.14 265.749C146.314 263.94 140.397 262.131 136.756 260.775C96.7068 242.233 57.5673 220.978 19.7932 200.627L15.6972 198.366C-0.686733 189.321 -16.6156 180.276 -32.5444 172.136V174.85C-17.0707 182.99 -1.14185 191.582 14.787 200.175L18.883 202.436C56.6571 223.239 95.7966 244.494 135.846 262.584C139.487 264.393 145.404 265.749 152.23 268.01C167.704 272.081 188.639 277.96 189.549 286.1C190.004 289.266 187.274 293.336 180.902 297.406C178.171 299.215 173.165 300.119 167.249 300.119C149.5 300.119 124.013 291.979 115.366 287.457C92.6108 275.698 68.49 257.609 44.8243 239.972C22.5239 223.239 -2.96228 203.793 -32.5444 186.608V189.321C-3.8725 206.506 21.6137 225.5 43.4589 242.233C67.1247 259.418 91.2455 277.96 114.456 289.266Z" fill="#C4C4C4" fill-opacity="0.4"/>
<path d="M46.1896 1149.87C51.6509 1032.74 133.116 940.488 198.196 865.868L203.203 859.989C281.026 771.803 277.841 740.599 241.432 704.872C201.382 665.527 138.577 606.736 53.0163 547.945C23.8892 528.047 -4.78272 509.505 -32.5444 493.224V495.938C-5.23783 512.218 22.979 530.308 51.6509 549.754C136.757 608.545 199.562 667.336 239.611 706.228C275.11 741.051 277.841 770.899 201.382 858.18L196.376 864.06C130.84 938.679 49.3754 1031.39 43.914 1149.42C38.4527 1260.22 -3.41739 1292.78 -32.5444 1301.83V1304.09C-2.50717 1295.49 40.7283 1262.48 46.1896 1149.87Z" fill="#C4C4C4" fill-opacity="0.4"/>
<path d="M-32.5449 444.383C120.827 530.761 286.487 667.789 316.524 736.077C334.729 777.23 290.583 826.072 235.06 888.028C171.799 958.577 93.5206 1046.31 88.5144 1151.23C82.598 1279.67 18.4274 1332.13 -33 1347.95V1351.12C19.3377 1335.29 85.3286 1281.93 91.245 1151.23C96.2513 1047.22 174.075 959.934 236.88 889.837C293.314 826.976 337.46 777.23 318.8 734.72C289.218 666.432 122.193 527.595 -32.5449 441.218V444.383Z" fill="#C4C4C4" fill-opacity="0.4"/>
</svg>
