<svg width="951" height="225" viewBox="0 0 951 225" fill="none" xmlns="http://www.w3.org/2000/svg">
<path d="M41.1047 136.974C40.619 138.426 42.5615 138.426 43.0471 139.878C42.0759 140.362 41.1047 140.362 40.619 140.846C38.191 139.394 37.2197 136.974 36.2485 134.554C35.7629 135.038 34.7917 136.006 33.8204 136.974C32.8492 134.554 32.8492 133.102 32.3636 130.682C29.9355 130.682 27.5074 130.682 25.565 130.682C24.5937 131.65 23.1369 133.102 21.68 134.554C21.1944 133.586 21.1944 133.102 20.7088 132.134C19.7376 130.682 18.7664 129.714 17.7951 128.262C16.8239 129.714 16.3383 131.166 15.8527 132.618C14.8814 132.618 14.3958 132.618 13.4246 132.618C12.939 131.65 12.4534 130.198 11.9678 128.746C10.5109 128.746 9.05406 128.746 8.08283 128.262C5.16914 125.842 2.74106 123.422 0.312988 121.486C0.312988 120.518 0.312988 120.034 0.312988 119.066C3.22668 118.098 6.14037 118.582 9.05406 118.582C9.53967 119.066 10.5109 120.034 11.4821 121.002C11.9677 119.066 11.9677 117.13 12.4534 115.194C13.9102 113.742 15.8527 114.71 17.3095 114.71C18.2807 114.226 18.7664 113.258 19.252 112.774C20.2232 113.258 20.7088 113.742 21.68 114.71C22.1657 112.29 22.1657 110.354 22.6513 108.902C26.0506 109.87 27.0218 114.226 30.4211 114.71C31.878 116.162 31.878 116.162 34.306 116.162C34.306 115.678 34.7917 115.678 34.7917 115.194C34.7917 111.806 34.7917 108.418 34.7917 105.514C33.8204 104.546 33.3348 104.062 32.8492 103.094C32.8492 101.642 32.8492 100.19 34.7917 100.19C36.7341 100.19 39.1622 103.578 41.5903 107.934C42.5615 107.934 43.5327 108.418 44.504 108.902C44.9896 108.902 44.9896 109.386 44.9896 109.386C44.9896 110.354 44.9896 110.838 44.9896 111.322C45.9608 112.29 46.932 113.258 47.9033 114.226C50.3313 113.258 50.817 110.354 52.2738 108.418C53.7306 105.998 56.6443 105.998 58.5868 105.03C59.0724 105.514 59.558 105.998 60.0436 106.482C61.9861 105.998 61.5005 104.546 61.0149 103.578C60.0436 102.126 58.5868 101.158 59.558 99.2217C61.5005 97.7697 63.9286 98.7377 66.3566 98.7377C67.3279 98.2537 67.8135 97.2857 68.2991 96.8017C70.2416 95.8337 71.2128 98.2537 72.6696 98.7377C73.6409 98.2537 74.1265 97.2857 75.0977 96.8017C76.0689 97.2857 77.0402 98.2537 78.497 98.7377C78.9826 98.2537 79.9539 97.2857 80.9251 96.3177C80.9251 95.8337 80.4395 95.3497 80.4395 94.8657C77.5258 92.4456 73.6409 90.9936 69.7559 90.5096C68.2991 88.5736 69.2703 86.1535 68.7847 83.7335C67.3279 83.2495 65.871 82.2814 64.8998 81.7974C64.8998 80.8294 64.8998 80.3454 64.8998 79.8614C67.8135 75.9893 73.1553 75.9893 76.5546 72.6013C80.4395 72.6013 84.81 72.6013 88.6949 72.6013C89.1805 72.1173 89.6662 71.6333 90.6374 70.6652C95.4935 70.6652 100.35 70.6652 105.206 70.6652C106.177 69.6972 106.663 69.2132 107.148 68.7292C110.062 67.7612 113.947 69.2132 116.861 67.2772C113.461 65.8252 110.548 66.7932 107.634 66.3092C104.72 66.3092 101.321 66.3092 98.4072 66.3092C95.4935 66.3092 92.0942 66.3092 89.1805 66.3092C86.2669 66.3092 83.3532 66.3092 80.4395 66.3092C79.4682 65.3411 78.9826 64.8571 78.497 64.3731C66.3566 64.3731 53.7306 64.3731 41.5903 64.3731C40.619 63.8891 40.1334 62.9211 39.1622 62.4371C33.8204 62.4371 28.4787 62.4371 22.6513 62.4371C22.1657 61.9531 21.68 61.4691 20.7088 60.5011C18.7664 60.5011 16.3383 60.5011 14.3958 60.5011C13.4246 59.533 12.939 59.049 12.4534 58.565C10.9965 58.565 9.53967 58.081 7.59721 58.081C7.59721 57.113 7.1116 56.145 6.62598 54.693C5.65475 54.209 4.19791 52.7569 2.74106 51.7889C3.22668 47.9168 6.62598 46.9488 8.08283 44.5288C9.53967 44.5288 10.9965 44.5288 11.9678 44.5288C14.3958 43.5608 14.8814 43.0768 15.3671 42.5928C17.7951 42.5928 19.7376 42.5928 21.68 42.5928C22.6513 43.5608 23.1369 44.0448 24.1081 44.5288C24.5937 43.0768 24.5937 42.1087 24.5937 41.1407C26.5362 39.2047 28.9643 40.6567 31.3924 40.1727C32.3636 41.1407 32.8492 41.6247 33.8204 42.5928C34.7917 41.1407 35.7629 39.2047 36.7341 37.2687C34.7917 35.3326 32.8492 33.3966 30.9067 31.4606C32.8492 29.0405 35.2773 27.1045 37.2197 25.1684C39.1622 24.2004 41.5903 24.6844 44.0183 24.2004C44.504 23.7164 45.4752 23.2324 46.4464 22.2644C48.8745 22.2644 51.7882 22.2644 54.2163 22.2644C55.1875 21.2964 55.6731 20.8124 56.1587 20.3284C61.9861 20.3284 68.7847 20.3284 74.6121 20.3284C76.0689 19.3603 76.5546 19.3603 77.0402 18.3923C83.8388 18.3923 90.6374 18.3923 97.436 18.3923C98.4072 17.9083 98.8928 16.9403 99.8641 16.4563C109.576 16.4563 118.803 16.4563 128.515 16.4563C129.001 15.9723 129.972 15.0043 130.458 14.5203C131.429 15.0043 131.915 15.9723 132.886 16.9403C133.857 16.4563 134.828 15.9723 136.771 15.0043C137.256 15.0043 137.742 15.4883 138.713 16.4563C139.199 15.9723 139.685 15.0043 140.656 14.5203C141.141 15.0043 142.113 15.4883 142.598 16.4563C143.084 15.9723 143.569 15.4883 144.055 15.0043C144.541 15.0043 144.541 14.5203 145.026 14.5203C158.624 14.5203 172.221 14.5203 185.818 14.5203C186.304 14.0362 186.789 13.5522 187.275 13.0682C187.76 13.0682 187.76 12.5842 188.246 12.5842C207.185 12.5842 226.61 12.5842 245.549 12.5842C246.034 12.1002 246.52 11.6162 247.491 10.6482C257.689 10.6482 268.372 10.6482 278.57 10.6482C279.056 9.68017 279.056 9.19616 279.542 8.71215C284.883 8.71215 290.225 8.22814 295.567 8.22814L296.053 7.74414C288.283 6.77612 285.369 6.77612 279.542 9.19616C278.57 9.19616 277.599 9.19616 276.628 9.19616C275.657 8.71215 275.171 7.74414 274.685 7.26013C272.257 6.29211 271.772 8.71215 269.829 9.19616C268.858 8.71215 267.887 8.22814 265.944 7.26013C259.146 7.26013 251.376 7.26013 243.606 7.26013C243.121 7.74414 242.635 8.22814 241.664 9.19616C224.182 9.19616 205.728 9.19616 188.246 9.19616C187.275 10.1642 186.789 10.6482 186.304 11.1322C183.875 11.1322 181.447 11.6162 179.019 10.6482C179.019 9.68017 179.019 8.71215 179.019 8.22814C179.505 7.74414 179.505 7.26013 179.991 7.26013C191.16 7.26013 201.843 7.26013 212.527 7.26013C213.498 6.77612 213.984 5.8081 214.955 5.32409C215.44 5.8081 216.412 6.77612 216.897 7.26013C217.383 5.8081 217.869 5.32409 218.354 4.84009C218.84 5.32409 219.811 5.8081 220.782 6.29211C222.239 6.29211 224.667 6.29211 227.095 6.29211C228.066 6.29211 228.552 3.87207 230.98 4.35608C231.466 4.84009 232.437 5.32409 232.923 6.29211C233.408 5.8081 234.379 4.84009 234.865 4.35608C258.66 4.35608 282.941 4.35608 306.736 4.35608C307.707 3.87207 308.193 2.90405 308.679 2.42004C309.164 2.90405 309.65 3.38806 310.621 4.35608C311.107 3.87207 312.078 3.38806 313.049 2.90405C315.477 2.90405 318.391 2.90405 321.305 2.90405C321.79 3.38806 322.276 3.87207 323.247 4.35608C323.733 3.87207 324.704 3.38806 325.189 2.42004C325.675 2.90405 326.646 3.38806 327.132 4.35608C327.618 3.87207 328.103 3.38806 328.589 2.90405C329.074 2.90405 329.56 2.42004 330.531 2.42004C353.355 2.42004 376.179 2.42004 399.003 2.42004C399.974 1.93603 400.46 0.968017 400.945 0.484009C401.917 0.968017 402.402 1.93603 402.888 2.42004C405.316 3.38806 405.802 0.968017 408.23 0.484009C408.715 0.968017 410.172 1.45203 411.143 2.42004C411.629 1.93603 412.115 1.45203 413.086 0.968017C486.414 0.968017 560.227 0.968017 633.069 0.968017C633.555 1.45203 634.041 1.93603 635.012 2.90405C635.497 2.42004 636.469 1.45203 636.954 0.968017C638.897 0.968017 640.839 0.968017 643.267 0.968017C644.239 1.45203 644.724 2.42004 645.21 2.90405C646.667 2.90405 648.123 2.90405 649.095 2.90405C650.066 2.42004 650.552 1.45203 651.037 0.968017C655.893 0.968017 660.749 0.968017 665.606 0.968017C666.091 1.45203 666.577 1.93603 667.062 2.42004C668.034 1.93603 669.005 1.45203 670.462 0.484009C671.433 0.968017 672.404 1.93603 673.375 2.42004C673.861 1.93603 674.832 1.45203 675.318 0.484009C676.775 0.484009 677.746 0.484009 679.203 0.484009C679.688 0.968017 680.66 1.93603 681.145 2.42004C682.117 1.93603 682.602 0.968017 683.573 0C684.545 0.484009 685.516 0.968017 687.458 1.93603C687.944 1.45203 688.915 0.968017 690.372 0C691.343 0.484009 692.314 1.45203 693.286 1.93603C694.257 1.45203 695.228 0.484009 696.199 0C697.171 0.968017 698.142 1.45203 699.113 2.42004C700.084 1.93603 700.57 0.968017 701.541 0C702.512 0.484009 703.484 0.968017 705.912 2.42004C713.196 2.42004 721.451 2.42004 729.707 2.42004C730.192 3.38806 730.192 3.87207 730.678 4.35608C728.736 4.35608 727.279 4.35608 725.822 4.35608C724.851 4.84009 724.365 5.8081 723.879 6.29211C723.394 5.8081 722.908 5.32409 722.423 4.84009C707.369 3.87207 683.088 3.87207 675.803 5.32409L676.289 5.8081C676.775 5.8081 677.746 6.29211 678.232 6.29211C690.372 6.29211 702.027 6.29211 713.681 6.29211C714.167 6.77612 714.653 7.26013 715.624 8.22814C722.423 8.22814 729.221 8.22814 736.02 8.22814C736.991 9.19616 737.477 9.68017 737.962 10.1642C746.703 10.1642 755.93 10.1642 764.671 10.1642C765.642 11.1322 766.128 11.6162 766.614 12.1002C776.811 12.1002 787.495 12.1002 797.207 12.1002C798.178 13.0682 798.664 13.5522 799.15 14.0362C803.035 14.0362 807.405 14.0362 811.29 14.0362C812.261 14.5203 812.747 15.4883 813.718 15.9723C816.632 15.9723 819.06 15.9723 821.974 15.9723C822.945 16.4563 823.43 17.4243 824.402 17.9083C829.258 17.9083 834.114 17.9083 838.485 17.9083C838.97 18.3923 839.456 18.8763 840.427 19.8443C843.826 20.3284 847.226 19.8443 851.111 20.3284C851.596 20.8124 852.082 21.2964 853.053 22.2644C857.909 22.2644 862.765 22.2644 867.621 22.2644C868.593 23.2324 869.078 23.7164 869.564 24.2004C870.05 23.7164 871.021 23.2324 871.506 22.2644C871.992 22.7484 872.963 23.2324 873.449 24.2004C876.848 24.2004 880.247 24.2004 883.647 24.2004C884.618 25.1684 885.104 26.1365 886.075 27.1045C886.075 27.1045 885.589 28.0725 885.104 28.0725C881.219 28.0725 876.848 28.0725 872.963 28.0725C872.478 28.0725 872.478 28.5565 872.478 28.5565C872.963 30.0085 874.42 29.5245 875.391 30.0085C876.363 30.9765 877.819 32.4286 879.276 33.8806C879.762 33.3966 880.733 32.9126 881.704 31.9446C885.104 31.9446 888.503 31.9446 891.902 31.9446C892.388 32.4286 893.359 33.3966 893.845 33.8806C895.787 33.8806 897.73 33.8806 899.672 33.8806C900.643 34.3646 901.129 35.3326 902.1 35.8166C903.557 35.8166 905.014 35.8166 905.985 35.8166C906.956 36.3006 907.442 37.2687 908.413 37.7527C910.356 37.7527 912.298 37.7527 914.241 37.7527C915.212 39.6887 916.183 41.1407 917.154 43.0768C916.669 43.5608 916.183 44.0448 915.212 45.0128C916.669 46.4648 918.611 45.4968 920.068 45.9808C921.525 44.5288 922.982 43.0768 924.438 42.1087C925.895 42.1087 927.352 42.1087 928.323 42.1087C930.751 44.0448 928.809 45.4968 927.352 47.4328C929.78 48.8849 932.694 48.4008 934.636 47.9168C935.608 47.4328 936.093 46.9488 937.064 45.9808C937.064 47.4328 937.55 48.4008 937.55 49.3689C936.093 49.8529 935.122 50.3369 933.665 50.8209C934.151 51.7889 934.636 52.7569 935.122 53.7249C933.665 55.177 931.723 53.7249 930.266 54.693C929.295 53.7249 928.809 53.2409 927.838 52.2729C927.352 53.2409 927.352 54.209 926.867 55.177C929.295 56.629 931.723 57.113 933.18 59.533C931.723 60.0171 930.751 60.0171 929.78 60.9851C928.809 61.9531 927.838 62.9211 926.381 62.4371C923.953 60.9851 925.895 59.049 924.924 57.113C923.953 56.145 922.496 56.629 921.039 56.629C921.039 55.177 921.039 53.2409 921.039 51.3049C920.068 50.8209 919.582 50.8209 918.611 50.3369C916.183 51.3049 915.697 54.209 912.784 54.209C910.356 54.693 909.384 56.145 908.413 57.597C908.413 60.9851 912.298 60.9851 912.298 63.8891C911.327 63.8891 910.356 63.8891 908.899 63.8891C908.413 64.8571 908.413 65.8252 907.927 66.3092C907.442 67.2772 906.956 68.2452 905.985 69.2132C906.956 70.1812 907.927 71.1493 908.899 71.6333C909.87 70.6652 910.841 69.6972 911.812 68.7292C911.812 66.7932 911.812 65.3411 911.812 63.8891C912.298 63.8891 912.784 64.3731 913.755 64.8571C913.755 66.7932 913.755 68.7292 913.755 71.1492C913.755 72.1173 910.841 72.6013 912.298 75.5053C912.298 75.5053 913.269 76.4733 914.241 77.4414C916.183 76.9574 916.669 74.5373 919.582 74.0533C919.582 74.0533 921.039 74.0533 922.496 74.0533C923.467 73.5693 923.953 72.6013 924.924 72.1173C925.895 73.5693 926.867 74.5373 927.838 75.9893C928.809 77.9254 929.295 79.8614 930.751 81.7974C931.723 83.2495 933.665 84.7015 935.122 86.1535C937.064 86.1535 939.007 86.1535 941.435 86.1535C942.406 87.6055 943.863 89.0576 944.834 90.0256C946.291 90.0256 946.777 90.0256 947.748 90.0256C948.234 90.9936 948.234 91.4776 948.719 92.9296C947.262 93.8977 945.32 95.3497 944.349 96.3177C944.349 98.2537 944.349 99.7057 944.349 101.158C943.863 102.126 942.892 102.61 942.406 103.094C942.892 104.062 943.863 104.546 944.349 105.03C944.834 106.966 943.863 108.418 945.32 109.87C945.805 108.418 946.777 106.966 947.262 105.514C948.234 107.45 949.205 108.902 950.176 110.838C949.69 111.322 949.205 111.806 948.719 112.774C949.205 113.258 950.176 114.226 950.662 114.71C950.662 116.162 950.662 117.614 950.662 118.582C950.176 119.066 949.69 119.55 949.205 119.55C940.949 119.55 932.694 119.55 925.41 119.55C924.438 120.518 923.953 121.002 922.982 121.486C920.554 121.486 917.154 121.486 914.241 121.486C914.726 123.906 916.669 124.39 917.64 126.326C917.154 126.81 917.154 127.294 916.669 127.294C911.327 127.294 905.985 127.294 900.158 127.294C899.672 128.746 898.701 130.198 897.73 131.65C894.816 130.198 892.388 129.23 889.96 127.778C887.532 129.23 884.618 130.198 881.704 131.65C880.733 129.714 880.247 128.262 879.762 127.294C878.791 127.294 878.305 127.294 877.819 127.294C875.877 128.746 877.334 130.198 876.848 132.134C876.363 133.102 875.391 134.07 874.42 135.038C872.963 135.038 871.506 135.522 869.564 135.522C869.078 136.006 868.593 136.006 868.593 136.49C868.593 138.91 868.593 141.814 868.593 144.235C868.107 145.203 867.136 145.687 866.65 146.171C867.621 147.139 868.593 148.107 869.564 149.075C870.05 148.591 871.021 147.623 871.506 147.139C872.963 147.139 874.906 147.139 876.363 147.139C876.848 148.107 877.334 149.075 878.305 149.075C879.762 149.075 881.704 149.559 882.676 148.107C881.219 146.171 878.791 147.139 876.363 147.139C877.334 145.687 878.305 143.751 879.276 141.814C879.762 141.814 881.219 141.33 882.19 140.846C882.19 139.394 882.676 137.942 882.676 136.006C884.132 134.554 886.075 135.522 887.532 135.038C888.503 135.522 888.989 136.49 889.96 136.974C891.417 136.974 892.873 136.974 894.33 136.974C894.816 137.942 894.816 138.426 895.302 139.878C892.873 141.814 890.445 143.751 888.989 145.203C888.989 146.655 888.989 147.623 888.989 148.107C890.445 149.559 892.388 149.075 893.845 149.075C895.302 149.075 896.758 149.075 897.73 149.075C899.186 149.075 901.129 149.075 902.586 149.075C903.071 146.171 901.129 147.623 899.186 145.203C899.672 146.171 899.186 144.719 898.701 143.751C898.701 143.267 897.73 143.267 897.244 142.783C897.244 140.362 897.244 137.942 897.244 136.006C896.758 135.522 895.787 134.554 894.816 133.586C896.273 133.102 897.244 133.102 898.701 133.102C899.186 134.554 899.186 135.522 899.186 136.49C900.643 137.942 902.586 139.394 904.043 141.33C905.014 141.33 905.985 141.814 907.442 141.814C907.442 144.235 907.442 146.655 907.442 148.107C908.899 149.559 909.87 150.527 910.356 151.495C911.812 151.495 913.269 151.495 914.726 151.495C917.154 149.559 914.726 146.655 916.183 144.235C916.669 144.235 917.154 143.751 918.125 143.751C918.125 145.203 918.125 147.139 918.125 148.591C918.611 149.075 919.582 150.043 920.068 151.011C918.611 152.463 917.154 153.431 915.212 154.883C915.697 155.851 916.669 156.819 917.154 158.271C917.64 159.239 918.125 160.691 918.611 161.659C920.553 162.143 921.039 162.143 922.01 160.207C922.496 160.207 923.467 159.723 923.467 159.723C923.953 158.755 922.982 158.271 922.01 158.271C922.01 156.335 924.438 155.851 924.924 153.915C926.381 155.367 927.838 156.819 929.295 158.271C930.751 158.271 932.208 158.271 933.665 158.271C933.665 159.239 934.151 160.691 934.151 161.659C928.323 162.627 923.953 164.563 920.554 168.435C918.125 167.467 916.669 166.499 915.212 166.015C911.812 168.435 915.697 172.307 912.784 174.243C911.812 173.275 910.841 172.307 909.87 171.339C910.841 169.887 912.784 169.403 911.327 166.499C908.899 165.531 905.985 166.499 902.586 166.015C901.615 166.983 900.643 167.951 899.672 168.435C899.186 172.307 902.586 172.791 903.071 175.211C902.586 175.695 901.615 176.663 901.129 177.631C897.244 180.051 894.33 174.727 889.474 176.663C889.474 176.663 888.503 177.147 887.046 178.115C886.075 177.147 885.104 176.663 883.647 175.695C881.704 175.695 879.762 175.695 877.819 175.695C876.848 176.663 875.877 177.147 875.391 177.631C872.478 177.631 871.992 174.243 869.078 176.179C869.078 176.663 868.593 177.631 868.593 178.599C869.564 179.567 870.535 180.535 871.992 181.503C874.906 182.955 876.848 180.051 879.762 179.567C880.733 180.535 881.219 181.019 882.19 181.503C882.676 181.019 883.647 180.051 884.132 179.567C887.046 179.083 888.503 183.439 892.873 181.019C892.388 181.019 893.359 180.535 894.33 180.051C895.302 180.535 896.273 181.019 897.73 181.987C898.701 181.503 899.672 180.535 901.129 179.567C901.615 180.535 902.586 181.503 903.557 182.471C902.586 182.955 901.615 183.439 900.158 183.923C900.643 185.375 902.1 184.891 903.071 185.375C904.043 185.859 904.528 186.343 905.014 186.827C905.499 186.343 905.985 185.859 906.956 184.891C907.442 185.375 908.413 185.859 909.384 186.827C911.812 186.827 914.726 186.827 919.097 186.827C917.64 187.311 910.356 189.247 909.87 189.247C911.327 190.215 912.784 190.699 914.241 191.183C912.784 193.603 909.87 191.183 907.927 193.603C911.327 194.571 914.726 194.087 918.125 194.087C921.039 194.087 923.953 193.603 927.838 195.055C923.467 196.507 920.554 195.539 917.64 196.023C916.183 196.991 915.212 197.959 913.755 198.927C917.64 201.348 921.039 198.927 924.438 200.864C923.953 201.832 923.467 202.316 922.496 203.284C923.953 203.768 925.41 204.736 926.381 205.22C926.381 206.188 926.381 206.672 926.381 207.156C924.924 208.124 922.982 208.608 920.554 210.06C919.582 210.06 917.154 210.06 915.212 210.06C914.24 210.544 913.755 211.512 912.784 211.996C905.985 211.996 899.186 211.996 892.388 211.996C891.417 212.48 890.931 213.448 889.96 213.932C875.391 213.932 861.309 213.932 846.74 213.932C846.254 214.416 845.769 214.9 844.798 215.868C838.97 216.352 832.657 215.868 825.859 215.868C825.373 216.352 824.887 216.836 823.916 217.804C809.833 217.804 795.265 217.804 780.696 217.804C779.725 218.772 779.24 219.256 778.754 219.74C753.988 219.74 729.221 219.74 704.94 219.74C703.969 220.708 703.484 221.192 702.998 221.676C628.699 221.676 553.429 221.676 479.129 221.676C478.158 222.644 477.673 223.128 477.187 223.612C455.334 223.612 433.482 223.612 411.629 223.612C411.143 223.128 410.172 222.644 409.686 221.676C408.715 222.16 407.744 223.128 406.773 224.096C405.316 223.128 404.345 222.644 403.374 221.676C337.815 221.676 272.257 221.676 206.214 221.676C205.728 221.192 205.243 220.708 204.271 219.74C193.588 219.74 182.419 219.74 171.249 219.74C170.278 218.772 169.793 218.288 169.307 217.804C165.422 217.804 161.052 217.804 157.167 217.804C156.195 216.836 155.71 216.352 155.224 215.868C150.368 215.868 145.998 215.868 140.656 215.868C139.199 213.932 137.256 211.512 135.314 209.576C131.915 209.576 129.001 209.576 126.087 209.576C123.659 207.156 125.602 206.188 127.059 204.736C127.059 203.284 127.059 202.316 127.059 200.864C129.487 198.927 130.943 195.055 134.828 195.539C134.343 193.603 132.886 192.151 131.915 191.667C129.972 191.183 129.001 190.699 129.001 188.763C129.001 187.311 127.059 186.343 126.087 185.375C122.202 184.891 123.659 187.795 121.717 189.247C121.231 188.763 120.26 188.279 119.289 187.311C117.346 187.311 115.404 187.311 113.461 187.311C112.49 187.795 112.004 189.731 110.062 189.247C110.062 188.763 109.576 187.795 109.576 187.795C108.12 187.311 108.12 188.279 108.12 189.247C106.663 189.247 106.177 189.731 106.177 190.699C106.177 192.151 106.177 193.119 108.12 193.119C108.12 193.603 108.605 194.571 108.605 194.571C111.519 194.571 113.461 198.443 117.832 196.507C117.832 196.507 119.289 195.055 120.26 194.087C119.289 193.119 118.803 192.151 117.832 191.183C119.289 190.699 120.26 190.699 120.746 190.699C123.174 192.635 120.746 195.055 121.717 197.475C122.202 198.443 123.174 199.411 123.659 200.864C121.717 200.864 119.774 200.864 118.803 200.864C114.918 204.252 120.746 205.22 119.289 208.124C116.861 209.576 116.861 209.576 114.433 207.64C113.461 208.124 112.49 208.608 111.033 209.576C110.062 209.092 108.605 208.124 106.663 207.156C105.691 207.64 104.72 208.608 103.263 209.092C102.778 208.608 102.292 207.64 102.292 207.156C102.778 205.22 104.235 203.768 106.177 203.284C106.663 204.736 106.177 206.188 108.12 204.736C107.634 204.252 107.148 203.768 106.177 203.284C107.148 200.38 104.235 198.443 103.263 195.539C102.778 194.571 102.292 193.119 101.321 191.667C100.835 191.667 99.3785 191.183 98.4072 190.699C97.436 189.731 96.4648 189.247 95.0079 189.247C93.0655 187.311 91.123 185.375 89.1805 183.439C88.6949 183.923 87.7237 184.407 87.2381 184.891C85.2956 185.375 82.8676 185.859 80.9251 183.439C78.9826 183.439 77.0402 183.439 74.6121 183.439C74.1265 183.923 73.1553 184.407 72.184 185.375C71.2128 184.407 70.7272 183.439 69.2703 181.987C69.2703 181.503 69.2703 180.051 69.2703 178.115C67.8135 177.147 66.3566 176.179 64.8998 175.211C64.8998 173.275 64.8998 171.823 64.8998 169.887C62.9573 168.435 60.5293 166.499 58.5868 164.563C59.0724 163.111 59.558 162.143 59.558 161.175C60.5293 162.143 61.0149 162.627 61.9861 163.111C62.4717 162.627 63.4429 161.659 63.9286 161.175C64.8998 162.143 65.871 163.111 66.8423 164.079C66.8423 164.563 66.8423 165.531 66.8423 166.015C68.2991 167.467 70.2416 169.403 71.6984 170.855C72.6696 170.371 73.1553 168.435 74.6121 168.919C74.6121 170.855 76.5546 171.339 77.5258 172.791C78.0114 173.275 79.4683 172.791 79.9539 172.791C81.4107 169.887 79.9539 167.951 78.9826 165.531C80.4395 164.079 82.3819 165.047 83.8388 165.047C85.2956 162.627 85.7812 159.239 90.1518 158.271C87.7237 157.303 86.7525 157.303 85.2956 156.819C84.81 155.851 84.3244 154.399 83.8388 153.431C83.3532 153.915 82.3819 154.399 82.3819 154.399C82.3819 155.851 82.3819 156.819 82.3819 158.271C80.9251 160.207 78.9826 158.755 77.5258 159.239C77.0402 158.755 76.0689 157.787 75.0977 157.303C72.184 157.303 69.7559 157.303 66.8423 157.303C65.871 156.819 65.3854 155.851 64.8998 155.367C63.9286 155.851 63.4429 156.819 62.9573 157.303C61.5005 155.851 60.5293 153.915 59.0724 153.915C64.8998 156.819 63.9286 154.883 61.9861 154.883C61.0149 154.883 60.0436 154.883 58.5868 154.883C58.1012 155.367 57.13 156.335 56.1587 156.819C55.6731 156.819 54.7019 156.819 54.2163 156.819C53.7306 156.819 52.7594 156.819 52.2738 156.819C51.7882 156.819 51.7882 157.303 51.3026 157.303C49.3601 158.271 47.4177 159.239 45.4752 160.691C44.9896 160.207 44.504 159.723 44.0183 159.239C42.0759 159.239 40.1334 159.239 38.6766 159.239C36.2485 157.787 34.306 156.819 32.3636 155.851C34.306 153.915 37.2197 152.463 38.191 150.043C39.1622 147.623 40.1334 146.171 42.0759 144.719C44.504 144.235 44.9896 145.687 44.9896 147.623C45.9608 148.591 46.932 149.559 47.9033 150.527C49.8457 150.527 52.2738 150.527 54.7019 150.527C55.1875 149.075 55.6731 148.107 56.1587 146.655C57.13 147.623 57.6156 148.107 58.5868 148.591C60.5293 148.591 62.4717 148.591 64.8998 148.591C65.871 147.623 66.8422 146.655 67.8135 145.687C66.3566 145.203 65.3854 144.235 63.9286 143.751C64.4142 142.299 66.3566 142.298 65.871 140.362C69.2703 140.846 71.2128 138.426 73.6409 137.942C73.1552 136.49 72.184 134.554 71.6984 133.102C71.6984 132.618 70.7272 132.618 70.2416 132.618C69.7559 131.166 70.2416 129.714 68.2991 131.166C68.7847 131.65 69.2703 132.134 70.2416 132.618C70.2416 133.102 70.2416 134.07 70.2416 135.522C68.7847 136.49 67.3279 137.942 66.3566 139.394C66.3566 139.394 66.3566 139.878 66.3566 140.362C64.8998 140.362 62.9573 140.362 61.0149 140.362C60.5293 141.33 60.0436 142.783 60.0436 143.751C58.1012 144.719 56.1587 144.719 54.2163 143.751C54.7019 143.267 55.1875 142.298 56.1587 141.814C55.6731 140.362 53.7306 139.878 54.2163 137.942C54.7019 137.458 55.6731 136.49 56.1587 136.006C56.1587 134.554 56.1587 132.618 56.1587 131.166C56.6443 131.166 57.6156 131.166 58.1012 130.682C58.5868 132.134 58.1012 133.586 60.0436 132.134C59.558 131.65 59.0724 131.166 58.1012 130.682C59.0724 129.714 59.558 128.746 60.0436 127.778C57.6156 125.358 55.1875 123.422 52.7594 120.518C51.3026 122.938 52.2738 125.842 51.3026 127.778C50.817 128.746 49.8457 129.714 49.8457 131.166C49.8457 132.134 50.3313 133.102 51.7882 132.618C51.3026 134.554 52.2738 136.49 50.817 138.426C50.3313 137.942 49.3601 137.458 48.3889 136.49C47.9033 136.974 46.932 137.458 46.4464 138.426C45.9608 136.974 44.9896 136.006 44.504 134.554C43.0471 135.522 42.0759 136.006 41.1047 136.974C40.619 135.522 41.1047 134.07 39.1622 135.522C39.6478 136.006 40.1334 136.49 41.1047 136.974ZM862.28 146.655C863.737 146.171 865.679 146.171 864.222 144.719C863.737 145.203 863.251 145.687 863.737 146.171C862.28 146.655 860.337 146.655 861.794 148.107C861.794 148.107 862.28 147.623 862.28 146.655ZM94.0367 102.126C94.5223 103.578 94.5223 105.03 95.9792 104.062C95.4935 103.578 95.0079 103.094 94.5223 103.578C94.0367 102.126 94.0367 100.674 92.5798 101.642C93.0655 101.642 93.5511 102.126 94.0367 102.126ZM874.906 66.3092C876.362 65.8252 878.305 67.2772 878.791 65.3411C876.363 64.3731 876.362 64.3731 874.906 66.3092C875.391 66.7932 874.906 66.3092 874.906 66.3092C873.934 66.7932 873.449 66.7932 872.963 67.2772L873.449 67.7612C874.42 67.7612 874.906 67.2772 874.906 66.3092ZM80.4395 105.03C79.9539 103.578 79.9539 102.126 78.497 103.094C78.9826 103.578 79.4682 104.062 80.4395 104.062C80.4395 105.514 80.4395 107.45 80.4395 108.902C82.3819 109.87 84.3244 110.838 86.2669 111.806C86.2669 109.87 86.2669 108.418 86.2669 106.482C85.2956 105.514 84.3244 104.546 83.3532 103.578C81.8963 104.546 80.9251 104.546 80.4395 105.03ZM96.4648 174.727C99.8641 174.243 97.436 178.115 99.8641 178.599C101.321 178.115 103.263 179.083 104.72 177.631C104.72 177.147 104.72 176.179 105.206 175.695C103.749 172.791 100.35 172.307 97.436 170.371C96.4648 172.307 96.4648 173.275 96.4648 174.727C94.5223 175.695 94.5223 175.695 95.4935 178.599C97.436 177.631 95.9792 176.179 96.4648 174.727ZM118.317 96.8017C120.26 95.8337 122.202 94.3817 123.659 94.8657C126.087 94.8657 127.059 93.4136 128.515 92.9296C129.001 93.4136 129.487 93.8977 129.972 94.3817C137.742 94.3817 145.512 94.3817 153.282 94.3817C154.253 93.4136 155.224 92.4456 156.195 91.4776C155.71 90.5096 155.71 89.5416 155.224 89.0576C154.253 89.0576 153.767 89.0576 152.796 89.0576C152.311 89.5416 151.339 90.5096 150.368 90.9936C140.17 90.9936 129.972 90.9936 119.774 90.9936C118.803 92.4456 116.861 92.9296 116.375 94.8657C117.346 95.3497 117.832 95.8337 118.317 96.8017ZM101.807 98.7377C104.235 94.8657 107.634 97.2857 110.548 95.8337C112.004 94.8657 113.947 94.3817 115.404 93.4136C114.918 92.4456 114.918 91.4776 114.433 90.5096C112.976 91.4776 111.519 91.9616 110.548 92.9296C109.576 91.9616 108.605 91.4776 108.12 90.5096C106.177 90.5096 104.235 90.5096 102.292 90.5096C101.321 90.9936 100.835 91.9616 100.35 92.4456C99.3785 91.9616 98.8929 91.4776 98.4072 90.9936C96.9504 91.9616 95.9792 92.4456 95.0079 92.9296C94.0367 91.9616 93.0655 91.4776 92.5798 90.9936C91.6086 91.4776 90.6374 92.4456 89.6662 92.4456C88.2093 92.9296 87.2381 92.9296 85.7812 92.9296C85.7812 92.9296 85.7812 93.4136 85.2956 93.4136C86.2669 94.3817 87.2381 95.3497 88.2093 96.3177C89.6662 96.3177 91.123 96.3177 92.0942 96.3177C93.0655 96.8017 93.5511 97.7697 94.0367 98.2537C95.0079 97.7697 95.4935 96.8017 96.4648 96.3177C97.9216 96.8017 99.8641 95.8337 101.807 98.7377ZM120.746 163.111C118.803 164.079 117.832 164.563 116.375 165.047C114.433 166.015 112.976 163.595 111.033 163.111C111.033 164.079 110.548 165.047 110.548 165.531C112.004 166.983 113.461 167.951 114.433 169.403C114.918 170.371 115.404 171.823 115.889 173.275C117.832 173.275 119.289 173.275 120.746 173.275C121.231 174.727 121.717 175.695 121.717 176.663C123.174 175.695 124.63 175.211 125.602 174.243C125.602 171.823 125.602 170.855 125.116 169.887C123.174 167.467 120.746 166.015 120.746 163.111ZM888.503 84.7015C887.046 85.1855 885.104 84.2175 883.161 85.6695C884.132 87.1215 882.19 89.0576 884.132 90.5096C886.075 90.5096 888.017 90.5096 889.96 90.5096C890.931 90.0256 891.417 89.0576 891.902 88.5736C892.873 89.0576 893.359 90.0256 894.33 90.5096C895.787 90.5096 897.244 90.5096 898.215 90.0256C898.701 90.0256 898.701 89.5416 899.186 89.0576C896.758 87.1215 895.787 84.2175 892.388 83.7335C891.417 84.7015 890.931 85.1855 889.96 85.6695C889.96 85.6695 888.989 85.1855 888.503 84.7015ZM130.458 170.855C132.886 170.371 135.314 171.339 137.256 170.371C136.771 169.403 135.8 168.435 135.314 167.467C134.828 166.015 135.8 164.079 134.343 163.111C131.915 163.595 129.972 162.627 127.544 163.595C127.544 165.047 127.544 166.499 127.544 167.951C128.515 168.919 129.487 169.887 130.458 170.855ZM868.593 137.942C868.593 135.038 865.679 137.942 865.193 136.006C864.708 135.038 864.222 133.586 864.222 132.618C862.28 133.102 860.823 132.134 858.88 133.586C858.88 135.038 858.88 136.49 859.366 137.942C859.366 138.426 859.852 138.426 859.852 138.426C862.765 138.426 865.193 138.426 868.107 138.426C868.107 138.426 868.107 138.426 868.593 137.942ZM930.751 97.7697C931.237 98.7377 929.78 100.19 930.266 100.19C933.665 98.2537 935.608 96.8017 937.55 95.8337C937.064 93.8976 938.036 91.9616 936.093 90.5096C934.636 90.9936 932.694 90.0256 931.237 91.4776C930.266 93.4136 931.723 94.3817 933.18 95.8337C931.723 96.3177 931.237 96.8017 930.751 97.7697ZM870.049 52.7569C871.021 51.7889 872.478 50.8209 872.963 49.3689C871.506 48.8849 871.021 46.4648 869.078 46.9488C864.222 50.3369 864.222 51.3049 866.165 52.7569C867.136 52.7569 868.593 52.7569 870.049 52.7569ZM905.014 90.5096C906.471 90.5096 907.928 90.5096 909.384 90.5096C909.87 90.0256 910.356 89.0576 911.327 88.5736C912.298 88.0895 913.755 89.0576 914.241 86.6375C910.841 86.6375 906.956 86.6375 903.557 86.6375C903.071 86.6375 903.071 87.6055 902.586 87.6055C903.071 88.5736 904.043 89.5416 905.014 90.5096ZM847.226 138.426C848.682 137.942 850.625 138.91 852.082 137.942C852.082 136.006 850.139 136.974 849.168 136.49C847.226 134.554 845.283 132.618 843.341 130.682H842.855C842.37 133.586 842.37 133.586 847.226 138.426ZM920.554 89.5416C920.554 88.5736 920.068 87.6055 919.582 85.1855C918.125 87.1215 917.154 88.0895 916.183 89.0576C916.669 89.5416 923.953 93.8976 924.438 93.8976C924.924 93.8976 925.41 93.4136 926.381 92.9296C925.41 90.9936 922.01 90.9936 920.554 89.5416ZM89.6662 146.655C84.3244 146.655 84.3244 146.655 81.8963 148.107C83.3532 148.107 84.3244 148.591 84.81 148.591C87.2381 148.591 89.6662 149.075 91.6086 148.107C92.0942 146.171 92.5798 144.235 90.6374 142.298C90.6374 143.751 90.6374 144.719 89.6662 146.655ZM69.7559 145.687C70.7272 146.655 71.6984 148.107 73.6409 148.591C73.6409 146.171 73.6409 144.235 73.6409 141.814C73.6409 141.33 72.6696 141.33 72.184 140.846C71.6984 142.299 69.7559 142.783 69.7559 145.687ZM877.334 131.65C876.362 130.682 875.391 129.714 874.42 128.746C872.478 128.746 870.535 127.778 869.078 129.714C870.535 130.198 871.506 130.198 872.478 130.682C873.449 131.166 874.42 132.618 875.877 132.134C875.877 132.134 876.848 132.134 877.334 131.65ZM885.589 53.2409C886.56 54.209 887.046 55.661 888.989 56.145C889.96 55.177 890.931 54.209 891.417 53.7249C890.445 52.7569 889.474 51.7889 888.503 50.8209C887.532 51.3049 886.56 52.2729 885.589 53.2409ZM105.206 166.499C104.72 164.563 104.72 164.079 104.235 162.627C102.778 163.111 101.807 163.111 100.35 163.111C100.835 164.563 100.835 165.531 100.835 166.499C102.292 166.499 103.263 166.499 105.206 166.499ZM297.024 7.74414C301.88 8.71215 301.88 8.71215 303.337 7.26013C301.88 6.29211 299.938 6.29211 297.024 7.74414ZM898.215 64.8571C899.186 63.4051 901.129 62.4371 901.129 60.9851C900.158 60.0171 898.701 60.0171 897.244 61.4691C897.73 62.4371 898.215 63.4051 898.215 64.8571ZM866.65 128.262C862.28 126.326 862.28 126.81 860.823 128.262C861.794 128.262 862.765 128.746 863.737 128.746C864.708 128.746 865.679 128.262 866.65 128.262ZM881.219 173.759C879.276 172.307 876.848 172.307 874.906 173.759C877.334 175.211 879.276 175.211 881.219 173.759ZM117.832 182.955C119.289 181.503 119.289 180.051 118.317 178.599C117.346 178.599 116.375 179.083 115.889 179.083C116.375 180.051 117.346 181.503 117.832 182.955ZM838.485 48.4008C838.97 48.4008 839.456 48.4008 839.941 48.4008C839.941 47.4328 840.427 46.4648 840.427 45.4968L839.941 45.0128C839.456 45.0128 838.485 45.4968 838.485 45.4968C837.999 46.4648 838.485 47.4328 838.485 48.4008ZM848.682 47.4328C846.74 45.9808 845.283 45.4968 844.798 47.9168C845.769 48.8849 846.74 48.8849 848.682 47.4328ZM904.043 57.113C904.043 57.597 904.043 58.081 904.043 58.565C905.014 58.565 905.985 59.049 906.956 59.049L907.442 58.565C907.442 58.081 906.956 57.113 906.471 57.113C905.985 56.629 905.014 56.629 904.043 57.113ZM909.87 63.4051C908.413 61.9531 906.956 61.9531 905.985 63.4051C907.442 64.8571 908.413 64.8571 909.87 63.4051ZM916.669 94.8657C916.669 95.3497 916.669 95.8337 916.669 96.3177C917.64 96.3177 918.611 96.8017 919.582 96.8017L920.068 96.3177C920.068 95.8337 919.582 94.8657 919.097 94.8657C918.125 94.3817 917.154 94.8657 916.669 94.8657ZM118.317 206.672C119.774 204.736 120.26 203.768 117.832 202.8C116.861 204.252 116.861 205.22 118.317 206.672ZM146.969 166.499C145.512 167.951 145.512 169.403 146.969 170.371C148.426 169.403 148.426 167.951 146.969 166.499ZM862.765 123.422C864.222 124.874 865.679 124.874 866.65 123.422C865.679 121.97 864.222 121.97 862.765 123.422ZM912.298 121.002C912.298 121.486 912.298 121.97 912.298 122.454C913.269 122.454 914.24 122.938 915.212 122.938L915.697 122.454C915.697 121.97 915.212 121.002 914.726 121.002C914.241 120.518 913.269 121.002 912.298 121.002ZM832.172 45.9808C832.657 46.4648 832.657 46.4648 833.143 46.4648C833.143 45.9808 833.628 45.4968 833.628 45.0128L833.143 44.5288C832.657 45.0128 832.657 45.4968 832.172 45.9808ZM915.212 45.0128C914.726 45.0128 914.24 45.4968 913.755 45.4968L914.241 45.9808C914.726 45.9808 915.212 45.4968 915.697 45.4968C916.183 45.4968 915.697 45.0128 915.212 45.0128ZM862.28 50.3369C862.765 49.8529 862.765 49.8529 863.251 49.8529C862.765 49.8529 862.28 49.3689 861.794 49.3689L861.309 49.8529C861.309 49.8529 861.794 49.8529 862.28 50.3369ZM474.273 51.7889C474.273 51.3049 473.788 50.8209 473.302 50.3369L472.816 50.8209C472.816 51.3049 473.302 51.7889 473.302 52.2729C473.788 52.2729 473.788 52.2729 474.273 51.7889ZM882.19 52.2729C882.676 52.2729 883.161 51.7889 883.647 51.7889L883.161 51.3049C882.676 51.3049 882.19 51.7889 881.704 51.7889C881.704 51.7889 881.704 51.7889 882.19 52.2729ZM883.161 65.8252C883.161 65.3411 882.676 64.8571 882.19 64.3731L881.704 64.8571C881.704 65.3411 882.19 65.8252 882.19 66.3092C882.676 66.3092 882.676 66.3092 883.161 65.8252ZM258.66 77.9254C258.66 77.4414 258.175 76.9574 257.689 76.4733L257.203 76.9574C257.203 77.4414 257.689 77.9254 257.689 78.4094C258.175 78.4094 258.175 77.9254 258.66 77.9254ZM218.84 82.7655C218.354 82.7655 217.869 83.2495 217.383 83.2495L217.869 83.7335C218.354 83.7335 218.84 83.2495 219.325 83.2495C219.325 83.2495 219.325 83.2495 218.84 82.7655ZM173.192 90.5096C173.678 90.5096 174.163 90.0256 174.649 90.0256L174.163 89.5416C173.678 89.5416 173.192 90.0256 172.706 90.0256C172.706 90.0256 173.192 90.0256 173.192 90.5096ZM67.3279 104.062C67.3279 103.578 66.8422 103.094 66.3566 102.61L65.871 103.094C65.871 103.578 66.3566 104.062 66.3566 104.546C66.8422 104.546 67.3279 104.062 67.3279 104.062ZM128.515 104.546L128.03 105.03C128.03 105.514 128.515 105.998 128.515 106.482L129.001 105.998C129.001 105.514 128.515 105.03 128.515 104.546ZM99.3785 106.966C98.8929 107.45 98.8929 107.45 98.4072 107.45C98.8929 107.45 99.3785 107.934 99.8641 107.934L100.35 107.45C100.35 107.45 99.8641 106.966 99.3785 106.966ZM70.2416 113.742C70.7272 114.226 70.7272 114.226 71.2128 114.226C71.2128 113.742 71.6984 113.258 71.6984 112.774L71.2128 112.29C70.7272 113.258 70.2416 113.258 70.2416 113.742ZM61.9861 118.098C62.4717 118.582 62.4717 118.582 62.9573 118.582C62.9573 118.098 63.4429 117.614 63.4429 117.13L62.9573 116.646C62.4717 117.13 61.9861 117.614 61.9861 118.098ZM858.395 121.97C858.395 121.486 857.909 121.002 857.424 120.518L856.938 121.002C856.938 121.486 857.424 121.97 857.424 122.454C857.909 122.454 857.909 121.97 858.395 121.97ZM852.567 133.586C852.567 134.07 853.053 134.554 853.539 135.038L854.024 134.554C854.024 134.07 853.539 133.586 853.539 133.102C853.539 133.102 853.053 133.102 852.567 133.586ZM95.0079 143.267C95.0079 143.751 95.4935 144.235 95.9792 144.719L96.4648 144.235C96.4648 143.751 95.9792 143.267 95.9792 142.783C95.4935 142.783 95.0079 143.267 95.0079 143.267ZM887.532 146.171C888.017 146.655 888.017 146.655 888.503 146.655C888.503 146.171 888.989 145.687 888.989 145.203L888.503 144.719C888.017 145.203 888.017 145.687 887.532 146.171ZM143.569 163.595C143.084 163.111 143.084 163.111 142.598 163.111C142.598 163.595 142.113 164.079 142.113 164.563L142.598 165.047C143.084 164.079 143.084 163.595 143.569 163.595ZM108.12 166.499C108.605 166.015 108.605 166.015 109.091 166.015C108.605 166.015 108.12 165.531 107.634 165.531L107.148 166.015C107.148 166.015 107.634 166.015 108.12 166.499ZM893.359 167.467C892.873 166.983 892.873 166.983 892.388 166.983C892.388 167.467 891.902 167.951 891.902 168.435L892.388 168.919C892.873 168.435 892.873 167.951 893.359 167.467ZM104.72 169.887L104.235 169.403C103.749 169.403 103.263 169.887 102.778 169.887L103.263 170.371C103.749 170.371 104.235 169.887 104.72 169.887ZM131.915 181.987C132.4 182.471 132.4 182.471 132.886 182.471C132.886 181.987 133.372 181.503 133.372 181.019L132.886 180.535C132.4 181.019 131.915 181.503 131.915 181.987Z" fill="#0077FF" fill-opacity="0.29"/>
</svg>
