<svg width="1920" height="2454" viewBox="0 0 1920 2454" fill="none" xmlns="http://www.w3.org/2000/svg">
<path d="M-17.9814 2248.71C-11.6098 2109.42 78.0468 2007.67 149.954 1925.81L154.96 1919.93C163.152 1911.34 182.722 1887.82 180.902 1859.78C179.991 1842.6 171.344 1827.22 155.416 1813.66C145.858 1805.52 137.211 1797.83 128.564 1791.04C91.245 1759.39 62.118 1734.06 16.607 1702.86C-0.232075 1691.55 -16.616 1680.7 -32.5449 1670.3V1672.11C-16.616 1682.05 -0.687183 1692.91 15.6968 1704.21C61.2078 1735.42 90.7899 1760.74 127.654 1792.4C135.846 1799.64 144.948 1807.32 154.505 1815.01C169.979 1828.13 178.626 1843.5 179.536 1860.24C180.902 1887.82 162.242 1910.89 153.595 1919.48L148.589 1925.36C76.6815 2007.21 -12.9752 2108.97 -19.8018 2249.16C-20.712 2264.08 -26.1733 2273.13 -33 2276.29V2278.1C-25.2631 2274.49 -18.8916 2265.44 -17.9814 2248.71Z" fill="#C4C4C4" fill-opacity="0.4"/>
<path d="M13.8768 2250.06C19.7932 2121.63 105.354 2024.4 174.076 1946.61L179.082 1940.73C193.645 1924.45 205.023 1909.98 213.67 1897.77C224.138 1882.4 244.162 1854.36 197.286 1809.13C146.769 1760.74 92.1557 1715.97 34.8119 1676.63C11.6012 1660.35 -11.1543 1645.88 -32.5444 1633.21V1635.02C-11.1543 1648.14 10.691 1662.16 33.9016 1677.98C91.2455 1717.33 145.859 1762.1 196.376 1810.49C242.342 1854.81 223.227 1882.4 212.76 1897.32C204.113 1909.53 192.735 1924 178.172 1940.28L173.165 1946.16C103.989 2023.95 18.4279 2121.18 12.5115 2250.06C9.7808 2309.76 -1.14184 2344.58 -21.1667 2359.51C-25.2627 2362.67 -28.9036 2364.03 -32.5444 2364.48V2365.84C-28.9036 2365.39 -24.8076 2364.03 -20.2565 2360.41C0.223488 2345.49 11.1461 2310.21 13.8768 2250.06Z" fill="#C4C4C4" fill-opacity="0.4"/>
<path d="M569.111 1331.57C560.464 1296.75 489.012 1287.7 406.182 1276.85C385.702 1274.14 364.767 1271.42 344.287 1268.26C253.72 1254.24 170.89 1209.01 90.3353 1165.15C50.2856 1142.99 9.32568 1120.83 -32.5444 1102.29V1105.9C8.87057 1123.99 49.3754 1146.15 88.9699 1167.86C169.524 1211.73 252.81 1256.95 343.832 1271.42C364.311 1274.59 385.702 1277.3 405.727 1280.02C484.005 1289.96 557.733 1299.91 565.925 1332.47C572.297 1357.8 539.074 1396.24 463.981 1450.51C358.85 1526.03 270.559 1561.31 185.908 1561.31C138.122 1561.31 90.3353 1549.55 44.8243 1526.03C16.6074 1511.56 -8.4236 1493.92 -32.5444 1475.83V1479.9C-8.87872 1497.54 15.6972 1514.73 43.4589 1528.75C89.8801 1552.26 137.667 1564.47 186.363 1564.47C271.469 1564.47 360.215 1529.2 466.256 1453.22C543.625 1397.14 575.938 1358.7 569.111 1331.57Z" fill="#C4C4C4" fill-opacity="0.4"/>
<path d="M64.3936 1488.04C98.9819 1505.68 128.564 1513.82 156.781 1513.82C186.818 1513.82 213.215 1504.78 243.707 1494.38C261.001 1488.5 281.026 1481.71 303.326 1476.29C314.704 1473.57 324.717 1473.12 331.088 1473.12C335.639 1473.12 339.735 1473.12 343.831 1473.57C347.472 1473.57 351.113 1474.02 354.754 1474.02C373.413 1474.02 387.977 1469.5 403.906 1448.25C414.828 1433.78 418.924 1422.47 422.565 1412.52C428.026 1397.6 432.122 1385.84 455.788 1369.11C461.705 1364.58 470.352 1361.42 478.999 1358.25C492.652 1352.83 504.03 1348.3 504.485 1340.61C504.94 1334.28 497.658 1327.5 481.274 1318.45C462.16 1308.05 434.398 1306.7 409.822 1306.7C398.899 1306.7 387.522 1307.15 376.599 1307.15C365.676 1307.6 353.844 1307.6 342.921 1307.6C318.345 1307.6 301.051 1305.79 287.397 1302.17C208.208 1281.37 134.025 1240.67 68.4895 1204.94C34.3563 1186.4 0.678146 1168.31 -32.5449 1152.48V1155.2C0.223034 1170.57 33.4461 1188.66 67.5793 1207.2C133.115 1242.93 207.753 1283.63 286.942 1304.89C301.051 1308.51 318.345 1310.31 343.376 1310.31C354.299 1310.31 366.132 1309.86 377.054 1309.86C387.977 1309.41 399.355 1309.41 410.277 1309.41C434.398 1309.41 461.705 1310.77 480.364 1321.17C495.383 1329.31 502.665 1335.64 502.209 1341.07C501.754 1347.4 490.377 1351.92 478.089 1356.44C469.441 1359.61 460.794 1363.23 454.423 1367.75C430.302 1384.93 425.751 1397.6 420.29 1412.07C416.649 1422.02 412.553 1432.87 402.085 1447.34C386.611 1468.15 372.503 1472.22 354.754 1472.22C351.113 1472.22 347.472 1472.22 343.831 1471.76C339.735 1471.76 335.639 1471.31 331.088 1471.31C324.717 1471.31 314.249 1471.76 302.871 1474.48C280.571 1479.9 260.546 1486.69 243.252 1492.57C212.759 1502.97 186.363 1511.56 156.781 1511.56C128.564 1511.56 99.437 1503.42 65.3038 1485.78C33.9012 1469.95 5.68436 1448.7 -21.6222 1427.9C-25.2631 1425.18 -29.3591 1422.02 -33 1419.3V1422.02C-29.8142 1424.73 -26.1733 1426.99 -22.9876 1429.71C4.77414 1450.96 32.991 1472.22 64.3936 1488.04Z" fill="#C4C4C4" fill-opacity="0.4"/>
<path d="M85.3291 1447.34C119.007 1464.53 151.775 1472.67 186.363 1472.67C205.478 1472.67 246.893 1464.98 282.847 1451.87C314.249 1440.56 352.024 1421.57 352.024 1396.24C352.024 1366.39 293.769 1349.66 259.181 1339.71C251.444 1337.45 245.073 1335.64 240.522 1334.28C178.172 1311.67 116.277 1283.63 46.1896 1245.19C19.3381 1230.72 -6.60316 1216.25 -32.5444 1203.59V1204.94C-7.05827 1217.61 19.3381 1232.08 45.7345 1246.55C116.277 1284.54 178.172 1313.03 240.522 1335.64C245.073 1337.45 251.444 1339.26 259.181 1341.07C293.769 1351.02 351.113 1367.3 351.113 1396.24C351.113 1440.11 226.413 1471.31 186.363 1471.31C152.23 1471.31 119.462 1463.17 86.2393 1445.99C58.4776 1431.97 32.0812 1411.62 6.13992 1392.62C-6.14805 1383.13 -18.8911 1373.63 -32.5444 1364.13V1365.94C-19.3462 1374.98 -7.05827 1384.48 5.2297 1393.53C31.171 1412.97 57.5674 1433.32 85.3291 1447.34Z" fill="#C4C4C4" fill-opacity="0.4"/>
<path d="M99.8921 1419.3C129.019 1434.23 157.236 1441.46 186.363 1441.46C211.394 1441.46 244.617 1434.23 257.36 1417.5C262.822 1410.26 264.642 1402.12 261.911 1392.62C255.995 1370.91 210.029 1355.09 176.351 1343.78C165.428 1340.16 155.871 1337 150.409 1334.28C111.27 1316.19 73.0406 1295.39 35.7216 1275.04L31.6256 1272.78C9.32524 1261.02 -11.6098 1249.72 -32.5449 1238.86V1240.22C-12.0649 1250.62 8.87012 1262.38 30.2603 1273.68L34.3563 1275.94C71.6753 1296.75 110.36 1317.55 149.499 1335.64C155.416 1338.35 164.973 1341.52 175.895 1345.14C207.298 1355.54 255.085 1371.82 260.546 1393.07C262.822 1402.12 261.456 1409.81 255.995 1416.59C243.707 1432.42 210.939 1439.65 185.908 1439.65C157.236 1439.65 129.019 1432.42 100.347 1417.95C74.8611 1404.83 49.3749 1385.84 24.799 1367.3C7.04969 1353.73 -12.0649 1339.71 -33 1326.14V1327.95C-12.52 1341.52 6.59457 1355.54 23.8888 1368.65C48.9198 1387.2 74.406 1406.19 99.8921 1419.3Z" fill="#C4C4C4" fill-opacity="0.4"/>
<path d="M114.456 1391.27C123.558 1395.79 149.044 1403.93 167.704 1403.93C174.531 1403.93 179.537 1403.02 182.723 1400.76C190.004 1396.24 193.19 1391.72 192.28 1387.65C190.915 1378.15 169.98 1372.27 153.14 1367.75C146.314 1365.94 140.397 1364.13 136.756 1362.77C96.7068 1344.23 57.5673 1322.98 19.7932 1302.63L15.6972 1300.37C-0.686733 1291.32 -16.6156 1282.28 -32.5444 1274.14V1276.85C-17.0707 1284.99 -1.14185 1293.58 14.787 1302.17L18.883 1304.44C56.6571 1325.24 95.7966 1346.49 135.846 1364.58C139.487 1366.39 145.404 1367.75 152.23 1370.01C167.704 1374.08 188.639 1379.96 189.549 1388.1C190.004 1391.27 187.274 1395.34 180.902 1399.41C178.171 1401.21 173.165 1402.12 167.249 1402.12C149.5 1402.12 124.013 1393.98 115.366 1389.46C92.6108 1377.7 68.49 1359.61 44.8243 1341.97C22.5239 1325.24 -2.96228 1305.79 -32.5444 1288.61V1291.32C-3.8725 1308.51 21.6137 1327.5 43.4589 1344.23C67.1247 1361.42 91.2455 1379.96 114.456 1391.27Z" fill="#C4C4C4" fill-opacity="0.4"/>
<path d="M46.1896 2251.87C51.6509 2134.74 133.116 2042.49 198.196 1967.87L203.203 1961.99C281.026 1873.8 277.841 1842.6 241.432 1806.87C201.382 1767.53 138.577 1708.74 53.0163 1649.95C23.8892 1630.05 -4.78272 1611.5 -32.5444 1595.22V1597.94C-5.23783 1614.22 22.979 1632.31 51.6509 1651.75C136.757 1710.55 199.562 1769.34 239.611 1808.23C275.11 1843.05 277.841 1872.9 201.382 1960.18L196.376 1966.06C130.84 2040.68 49.3754 2133.39 43.914 2251.42C38.4527 2362.22 -3.41739 2394.78 -32.5444 2403.83V2406.09C-2.50717 2397.49 40.7283 2364.48 46.1896 2251.87Z" fill="#C4C4C4" fill-opacity="0.4"/>
<path d="M-32.5449 1546.38C120.827 1632.76 286.487 1769.79 316.524 1838.08C334.729 1879.23 290.583 1928.07 235.06 1990.03C171.799 2060.58 93.5206 2148.31 88.5144 2253.23C82.598 2381.67 18.4274 2434.13 -33 2449.95V2453.12C19.3377 2437.29 85.3286 2383.93 91.245 2253.23C96.2513 2149.22 174.075 2061.93 236.88 1991.84C293.314 1928.98 337.46 1879.23 318.8 1836.72C289.218 1768.43 122.193 1629.59 -32.5449 1543.22V1546.38Z" fill="#C4C4C4" fill-opacity="0.4"/>
<g opacity="0.4">
<path d="M1797.35 1652.89C1792.7 1652.89 1788.06 1652.89 1783.77 1652.89C1779.48 1652.89 1775.19 1652.89 1770.9 1652.89C1746.6 1652.89 1727.31 1654.31 1705.87 1660.71C1694.79 1664.26 1684.07 1669.23 1674.06 1674.55C1657.27 1683.08 1641.18 1691.24 1621.89 1691.24C1618.67 1691.24 1615.45 1690.89 1612.24 1690.53C1598.3 1688.4 1587.58 1680.24 1577.22 1672.42C1565.78 1663.55 1555.06 1655.02 1539.7 1655.02C1538.27 1655.02 1536.84 1655.02 1535.41 1655.38C1526.12 1656.44 1511.11 1664.61 1496.46 1672.78C1487.17 1678.1 1478.23 1683.08 1472.16 1685.21C1463.22 1688.4 1456.08 1690.18 1451.07 1691.24C1436.06 1694.79 1434.28 1696.21 1426.77 1723.56C1424.63 1731.01 1423.2 1738.12 1421.77 1745.22C1416.41 1770.79 1412.48 1790.67 1384.96 1810.2C1366.38 1822.98 1343.15 1829.38 1313.49 1829.38C1284.19 1829.38 1253.46 1823.34 1226.3 1818.01C1212 1815.17 1198.78 1812.69 1188.78 1811.62C1183.06 1810.91 1174.12 1810.56 1164.83 1810.56C1138.75 1810.56 1108.01 1820.14 1105.87 1833.64C1104.8 1840.03 1109.8 1849.97 1140.18 1859.56L1143.39 1860.62C1258.1 1897.2 1337.79 1944.78 1419.27 2025.04C1441.78 2047.05 1458.93 2057.35 1473.23 2057.35C1476.44 2057.35 1480.02 2056.64 1482.88 2055.57C1498.24 2049.89 1509.32 2030.72 1522.19 2008.7C1528.98 1997.34 1536.48 1984.2 1545.41 1971.77C1588.65 1911.4 1650.48 1867.02 1719.8 1847.49C1740.17 1841.8 1760.18 1838.61 1779.12 1838.61C1840.94 1838.61 1884.54 1868.79 1925.64 1899.69V1897.56C1884.54 1866.66 1840.94 1837.19 1779.12 1837.19C1760.18 1837.19 1739.81 1840.03 1719.44 1846.07C1649.76 1865.95 1587.58 1910.34 1543.98 1971.06C1535.05 1983.49 1527.55 1996.63 1520.76 2007.99C1507.89 2030.01 1497.17 2048.83 1482.52 2054.15C1479.66 2055.22 1476.44 2055.93 1473.23 2055.93C1459.29 2055.93 1442.5 2045.63 1420.7 2023.97C1339.22 1943.36 1259.17 1895.78 1144.11 1858.85L1140.89 1857.78C1118.38 1850.68 1106.58 1842.16 1108.01 1833.99C1109.8 1822.63 1136.96 1812.33 1165.19 1812.33C1174.12 1812.33 1183.06 1812.69 1188.78 1813.4C1198.78 1814.46 1212 1816.95 1226.3 1819.79C1253.46 1825.12 1284.55 1831.51 1313.85 1831.51C1343.87 1831.51 1367.81 1825.12 1386.39 1811.98C1414.27 1792.45 1418.55 1771.85 1423.91 1745.93C1425.34 1739.18 1426.77 1732.08 1428.92 1724.62C1436.06 1697.28 1437.49 1696.93 1451.79 1693.37C1456.79 1692.31 1463.58 1690.53 1472.87 1687.34C1479.3 1684.85 1488.24 1679.88 1497.53 1674.91C1511.11 1667.1 1526.83 1658.57 1535.77 1657.51C1537.19 1657.51 1538.62 1657.15 1539.7 1657.15C1554.35 1657.15 1565.07 1665.32 1576.15 1674.2C1586.51 1682.37 1597.23 1690.89 1611.88 1692.66C1615.1 1693.02 1618.31 1693.37 1621.53 1693.37C1641.18 1693.37 1657.98 1684.85 1674.42 1676.68C1684.42 1671.71 1694.79 1666.39 1705.87 1662.84C1726.95 1656.44 1746.25 1655.02 1770.55 1655.02C1774.83 1655.02 1779.12 1655.02 1783.41 1655.02C1788.06 1655.02 1792.34 1655.02 1797.35 1655.02C1819.15 1655.02 1838.8 1657.51 1857.03 1662.84C1880.25 1669.58 1903.12 1678.46 1925.64 1689.47V1687.34C1903.12 1676.68 1880.25 1667.81 1857.38 1661.06C1839.16 1655.73 1819.5 1652.89 1797.35 1652.89Z" fill="#C4C4C4"/>
<path d="M1797.35 1688.76C1767.33 1688.76 1735.17 1694.08 1701.58 1699.77C1663.34 1706.16 1624.03 1712.9 1581.86 1712.9C1579 1712.9 1575.79 1712.9 1572.93 1712.9C1558.28 1712.55 1546.13 1710.06 1535.05 1707.93C1525.76 1706.16 1517.54 1704.38 1509.68 1704.38C1491.1 1704.38 1477.52 1713.97 1462.51 1737.76C1455.36 1749.12 1450 1762.97 1445 1776.11C1436.06 1799.55 1426.77 1823.7 1406.4 1838.25C1399.26 1843.23 1385.68 1847.13 1371.38 1851.04C1346.37 1858.14 1318.14 1866.31 1314.21 1883C1309.56 1903.95 1352.8 1932.71 1376.03 1948.33C1380.32 1951.18 1384.25 1953.66 1386.75 1955.44C1414.26 1975.32 1436.78 1988.82 1458.22 1988.82C1461.08 1988.82 1463.94 1988.46 1466.8 1988.11C1483.95 1984.91 1499.67 1972.84 1515.75 1950.11C1563.64 1883 1632.61 1833.99 1709.8 1811.98C1733.38 1805.23 1756.97 1801.68 1779.12 1801.68C1840.94 1801.68 1886.33 1826.54 1925.64 1853.88V1852.46C1886.33 1825.12 1840.94 1800.26 1779.12 1800.26C1756.61 1800.26 1733.38 1803.81 1709.44 1810.56C1631.89 1832.57 1562.92 1881.93 1515.04 1949.04C1498.96 1971.77 1483.59 1983.49 1466.8 1986.69C1463.94 1987.04 1461.08 1987.4 1458.22 1987.4C1437.14 1987.4 1414.62 1974.26 1387.46 1954.37C1384.96 1952.6 1381.39 1950.11 1376.74 1947.27C1353.51 1932 1310.63 1903.59 1315.28 1883.35C1318.85 1867.37 1347.08 1859.2 1371.74 1852.1C1386.03 1848.2 1399.61 1844.29 1406.76 1838.96C1427.49 1824.41 1436.78 1799.9 1445.71 1776.47C1450.71 1763.33 1456.08 1749.48 1463.22 1738.12C1477.87 1714.68 1491.45 1705.09 1509.32 1705.09C1517.18 1705.09 1525.04 1706.51 1534.34 1708.64C1545.41 1710.77 1557.56 1713.26 1572.21 1713.61C1575.07 1713.61 1578.29 1713.61 1581.15 1713.61C1623.32 1713.61 1662.63 1706.87 1700.86 1700.48C1734.81 1694.79 1766.61 1689.47 1796.63 1689.47C1815.21 1689.47 1831.65 1691.6 1846.66 1695.86C1872.75 1703.32 1898.48 1714.33 1925.28 1727.82V1726.75C1898.84 1713.61 1873.11 1702.61 1847.02 1695.15C1832.73 1690.89 1816.29 1688.76 1797.35 1688.76Z" fill="#C4C4C4"/>
<path d="M1797.35 1713.61C1769.47 1713.61 1738.38 1718.94 1705.51 1724.27C1666.2 1731.01 1625.82 1737.76 1581.86 1737.76C1578.65 1737.76 1575.43 1737.76 1572.21 1737.76C1569.71 1737.76 1566.85 1737.76 1564.35 1737.41C1557.56 1737.05 1551.49 1737.05 1545.41 1737.05C1507.53 1737.05 1483.95 1744.86 1468.23 1785.34C1458.58 1810.91 1447.14 1840.03 1420.7 1858.85C1413.19 1864.18 1405.69 1868.79 1398.9 1872.7C1383.53 1881.93 1371.38 1889.39 1370.67 1899.33C1370.31 1908.56 1379.6 1919.93 1401.4 1935.55C1422.13 1950.82 1439.28 1957.92 1453.57 1957.92C1455 1957.92 1456.08 1957.92 1457.5 1957.92C1478.23 1956.15 1492.53 1938.75 1510.04 1917.09C1518.25 1907.14 1527.19 1896.13 1537.91 1885.48C1584.36 1839.32 1641.18 1805.59 1703.01 1788.19C1729.09 1781.08 1754.82 1777.53 1779.48 1777.53C1840.23 1777.53 1887.04 1799.55 1925.99 1824.76V1823.34C1887.04 1798.13 1840.23 1776.47 1779.48 1776.47C1754.82 1776.47 1729.09 1780.37 1703.01 1787.48C1641.18 1804.87 1584.01 1838.61 1537.55 1885.13C1526.83 1895.78 1517.54 1907.14 1509.68 1916.73C1492.17 1938.39 1478.23 1955.08 1457.86 1957.21C1456.79 1957.21 1455.36 1957.21 1453.93 1957.21C1439.64 1957.21 1422.84 1949.75 1402.47 1934.84C1381.03 1919.22 1371.74 1908.56 1372.1 1899.33C1372.45 1889.74 1384.6 1882.64 1399.61 1873.41C1406.4 1869.5 1413.91 1864.89 1421.41 1859.56C1448.21 1840.74 1459.65 1811.27 1469.3 1785.7C1484.66 1745.57 1507.89 1738.12 1545.41 1738.12C1551.49 1738.12 1557.92 1738.12 1564.35 1738.47C1566.85 1738.47 1569.36 1738.47 1572.21 1738.83C1575.43 1738.83 1578.65 1738.83 1581.86 1738.83C1626.18 1738.83 1666.56 1732.08 1705.86 1725.33C1738.74 1719.65 1769.47 1714.68 1797.35 1714.68C1813.43 1714.68 1827.72 1716.46 1840.59 1720.01C1868.46 1727.82 1896.69 1740.6 1925.99 1755.87V1754.81C1896.69 1739.89 1868.46 1727.11 1840.94 1719.3C1828.08 1715.39 1813.79 1713.61 1797.35 1713.61Z" fill="#C4C4C4"/>
<path d="M1797.35 1738.12C1771.62 1738.12 1741.6 1743.09 1709.8 1748.41C1669.77 1755.16 1627.96 1762.26 1581.86 1762.26C1578.65 1762.26 1575.07 1762.26 1571.86 1762.26L1564 1761.91C1557.56 1761.91 1551.49 1761.55 1545.77 1761.55C1495.74 1761.55 1493.24 1788.9 1490.74 1818.01C1489.31 1833.99 1487.88 1850.33 1478.95 1864.18C1475.73 1869.15 1467.51 1875.54 1458.58 1882.29C1439.64 1896.49 1417.84 1912.47 1428.2 1927.74C1432.49 1934.13 1437.85 1937.68 1444.28 1937.68C1447.5 1937.68 1451.43 1936.62 1455 1934.84C1471.8 1926.32 1490.02 1900.4 1504.32 1879.8C1512.54 1868.08 1519.68 1858.14 1523.61 1855.65C1527.55 1853.17 1532.19 1852.81 1536.12 1852.81C1537.55 1852.81 1539.34 1852.81 1540.77 1852.81C1542.2 1852.81 1543.98 1852.81 1545.41 1852.81C1551.13 1852.81 1557.56 1852.1 1563.28 1847.13C1570.07 1841.09 1570.79 1832.93 1571.86 1825.47C1572.57 1818.72 1573.29 1811.98 1577.93 1806.65C1591.87 1789.96 1640.83 1778.6 1672.99 1770.79C1682.64 1768.65 1690.86 1766.52 1696.93 1764.75C1725.16 1756.58 1753.04 1752.68 1779.84 1752.68C1839.51 1752.68 1887.4 1772.21 1926.35 1795.29V1793.16C1887.4 1770.08 1839.51 1750.54 1779.84 1750.54C1752.68 1750.54 1724.8 1754.81 1696.22 1762.62C1690.14 1764.39 1681.92 1766.17 1672.27 1768.65C1637.61 1776.82 1590.44 1787.83 1576.15 1804.87C1571.14 1810.91 1570.43 1818.01 1569.71 1824.76C1569 1832.57 1568.28 1839.67 1561.85 1845.36C1556.85 1849.97 1550.77 1850.68 1545.41 1850.68C1543.98 1850.68 1542.2 1850.68 1540.77 1850.68C1539.34 1850.68 1537.55 1850.68 1536.12 1850.68C1531.83 1850.68 1527.19 1851.04 1522.54 1853.52C1518.25 1856.01 1511.46 1865.95 1502.89 1878.02C1489.31 1897.56 1470.73 1923.83 1453.93 1932.35C1443.93 1937.68 1436.06 1935.55 1429.63 1925.96C1420.34 1912.11 1441.07 1896.84 1459.65 1883C1469.3 1875.89 1477.16 1869.86 1480.73 1864.53C1489.67 1850.33 1491.1 1833.64 1492.88 1817.66C1495.38 1788.19 1497.89 1762.97 1546.13 1762.97C1551.85 1762.97 1557.92 1762.97 1564.35 1763.33L1572.21 1763.68C1575.43 1763.68 1579 1763.68 1582.22 1763.68C1628.68 1763.68 1670.13 1756.58 1710.51 1749.83C1742.31 1744.51 1771.98 1739.54 1797.7 1739.54C1811.28 1739.54 1823.43 1740.96 1833.8 1744.15C1862.74 1752.68 1893.83 1767.59 1925.99 1784.63V1782.5C1893.83 1765.81 1863.46 1750.9 1834.15 1742.73C1823.43 1739.89 1811.28 1738.12 1797.35 1738.12Z" fill="#C4C4C4"/>
<path d="M1364.95 1780.37C1352.8 1788.9 1336.36 1793.16 1314.21 1793.16C1288.48 1793.16 1259.53 1787.47 1233.8 1782.5C1218.79 1779.66 1204.5 1776.82 1193.06 1775.4C1187.35 1774.69 1171.98 1773.27 1153.4 1773.27C1118.73 1773.27 1074.07 1777.89 1059.06 1800.26C1052.62 1809.85 1052.27 1822.27 1058.34 1836.48C1061.2 1843.23 1068.35 1846.78 1075.49 1850.33C1081.21 1853.17 1086.93 1856.01 1090.15 1860.27C1094.08 1865.24 1096.22 1872.7 1098.37 1879.45C1101.22 1888.68 1104.08 1898.27 1110.87 1903.95C1119.09 1911.05 1128.38 1914.24 1139.82 1914.24C1147.68 1914.24 1155.9 1912.82 1163.76 1911.05C1171.62 1909.63 1179.48 1907.85 1186.99 1907.85C1194.49 1907.85 1200.93 1909.27 1206.64 1912.47C1220.94 1919.57 1226.65 1929.51 1232.73 1939.1C1240.23 1951.53 1247.38 1963.25 1270.97 1968.57C1319.92 1979.94 1333.5 1992.01 1366.02 2020.77C1370.31 2024.32 1374.6 2028.59 1379.6 2032.85C1391.39 2043.15 1399.97 2054.86 1408.19 2065.87C1415.69 2075.81 1423.2 2086.47 1433.2 2095.7C1445.35 2107.42 1456.79 2112.39 1467.87 2117.72C1482.52 2124.46 1496.81 2130.85 1509.32 2152.52L1511.46 2156.07C1527.55 2183.41 1543.63 2208.98 1553.63 2208.98C1555.06 2208.98 1556.49 2208.27 1557.56 2207.2C1561.14 2203.29 1562.21 2193 1560.42 2175.6C1559.35 2165.3 1552.2 2156.42 1545.06 2147.54C1537.19 2137.96 1530.05 2129.08 1530.4 2119.14C1530.76 2107.42 1538.27 2101.38 1545.77 2095.34C1551.49 2090.73 1557.21 2086.11 1560.42 2079.01C1568.64 2061.61 1570.43 2045.99 1572.57 2030.72C1575.07 2009.77 1577.58 1989.88 1596.51 1967.51C1630.46 1927.38 1677.99 1896.84 1730.16 1881.93C1747.68 1876.96 1763.76 1874.47 1779.48 1874.47C1833.08 1874.47 1871.32 1903.24 1912.06 1934.13C1916.7 1937.68 1921.35 1941.23 1925.99 1944.43V1940.88C1921.71 1937.68 1917.78 1934.49 1913.49 1931.64C1872.39 1900.75 1833.8 1871.63 1779.48 1871.63C1763.4 1871.63 1746.96 1874.12 1729.45 1879.09C1676.56 1894 1628.68 1924.9 1594.37 1965.38C1575.07 1988.46 1572.57 2008.7 1569.71 2030.01C1567.93 2044.92 1565.78 2060.19 1557.92 2077.23C1554.7 2083.98 1549.34 2088.6 1543.98 2092.86C1536.12 2099.25 1528.26 2105.64 1527.55 2118.43C1527.19 2129.43 1535.05 2139.02 1542.55 2148.61C1549.34 2157.13 1556.49 2166.01 1557.56 2175.24C1559.35 2195.84 1557.21 2202.58 1555.42 2205.07C1554.7 2205.78 1553.99 2206.13 1553.28 2206.13C1543.27 2206.13 1522.54 2169.91 1513.25 2154.65L1511.11 2151.09C1497.89 2128.72 1483.59 2122.33 1468.58 2115.58C1457.5 2110.61 1446.43 2105.64 1434.63 2094.28C1424.99 2085.05 1417.12 2074.75 1409.98 2064.81C1401.4 2053.44 1392.82 2041.72 1381.03 2031.43C1376.03 2027.17 1371.74 2023.26 1367.45 2019.35C1334.58 1990.24 1321 1978.16 1271.32 1966.8C1248.81 1961.47 1242.02 1950.46 1234.87 1938.39C1228.8 1928.45 1222.72 1918.51 1208.07 1911.05C1202 1907.85 1195.21 1906.43 1187.35 1906.43C1179.48 1906.43 1171.27 1907.85 1163.4 1909.63C1155.54 1911.05 1147.68 1912.82 1140.18 1912.82C1129.45 1912.82 1120.88 1909.63 1112.66 1903.24C1106.58 1897.91 1103.73 1889.03 1100.87 1879.8C1098.72 1872.7 1096.22 1865.24 1092.29 1859.91C1088.72 1854.94 1082.64 1852.1 1076.92 1849.26C1070.13 1845.71 1063.34 1842.51 1060.84 1836.48C1055.13 1822.98 1055.48 1811.62 1061.56 1802.39C1075.85 1781.08 1119.81 1776.47 1154.11 1776.47C1172.69 1776.47 1188.06 1777.89 1193.42 1778.6C1204.86 1779.66 1219.15 1782.5 1234.16 1785.7C1259.89 1790.67 1288.83 1796.71 1314.92 1796.71C1337.43 1796.71 1354.59 1792.45 1367.09 1783.57C1398.54 1761.55 1389.25 1728.53 1380.67 1696.57C1371.38 1662.48 1361.73 1626.97 1400.33 1603.89C1404.97 1601.05 1411.05 1599.63 1418.55 1599.63C1441.42 1599.63 1473.94 1612.06 1505.39 1624.13C1532.55 1634.78 1558.64 1644.73 1575.43 1645.08C1577.93 1645.08 1580.43 1645.08 1582.58 1645.08C1618.67 1645.08 1655.12 1639.04 1690.5 1633.01C1725.88 1626.97 1762.33 1620.93 1798.06 1620.93C1823.08 1620.93 1845.95 1623.77 1867.39 1630.17C1887.4 1635.85 1907.05 1643.31 1926.35 1651.83V1648.99C1907.05 1640.46 1887.76 1633.36 1868.1 1627.68C1846.3 1621.64 1823.43 1618.45 1798.06 1618.45C1761.97 1618.45 1725.52 1624.49 1690.14 1630.52C1655.12 1636.56 1618.67 1642.6 1582.58 1642.6C1580.08 1642.6 1577.93 1642.6 1575.43 1642.6C1558.99 1642.24 1533.62 1632.3 1506.46 1622C1475.02 1609.93 1442.14 1597.14 1418.55 1597.14C1410.33 1597.14 1403.9 1598.56 1398.9 1601.76C1358.88 1625.91 1368.52 1662.13 1378.17 1697.28C1386.39 1728.53 1394.61 1759.42 1364.95 1780.37Z" fill="#C4C4C4"/>
</g>
<path d="M1847.57 328.597C1845.44 326.902 1842.03 323.937 1837.77 320.548C1821.57 306.568 1794.28 282.845 1775.1 282.845C1767.42 282.845 1761.88 286.658 1758.47 293.436C1754.21 302.332 1763.59 323.09 1770.41 336.646C1772.11 340.035 1773.39 343 1774.24 345.118C1775.95 349.355 1777.65 353.167 1778.93 356.98C1787.89 380.703 1797.27 404.85 1804.09 431.115C1804.94 434.081 1805.37 437.046 1806.22 440.435C1809.2 454.415 1813.47 472.207 1823.27 480.68C1827.11 484.069 1830.94 486.187 1834.36 487.458C1836.06 487.882 1837.77 488.305 1839.04 488.305C1850.56 488.305 1858.66 475.173 1866.33 462.464C1868.03 459.498 1869.74 456.533 1871.87 453.991L1873.58 451.449C1902.99 406.968 1920.9 380.28 1866.76 343C1861.64 338.764 1854.82 333.68 1847.57 328.597ZM1871.87 449.755L1870.17 452.297C1868.46 455.262 1866.33 458.227 1864.62 460.769C1857.38 473.055 1849.7 485.34 1839.04 485.34C1837.77 485.34 1836.49 484.916 1834.78 484.916C1831.37 484.069 1827.96 481.951 1824.55 478.562C1815.17 470.513 1811.33 453.144 1808.35 439.588C1807.5 436.199 1807.07 433.233 1806.22 430.268C1799.4 403.579 1790.02 379.432 1780.64 355.709C1779.36 352.32 1777.65 348.084 1775.95 343.848C1775.1 341.729 1773.82 338.764 1772.11 335.375C1766.14 323.09 1756.34 301.908 1760.18 293.859C1763.59 287.505 1768.28 284.116 1775.1 284.116C1793.43 284.116 1820.29 307.415 1836.06 320.972C1840.32 324.784 1843.73 327.75 1845.87 329.021C1853.11 334.104 1859.93 339.188 1865.05 342.577C1917.91 379.856 1900.44 406.121 1871.87 449.755Z" fill="#C4C4C4" fill-opacity="0.4"/>
<path d="M1882.53 281.151C1873.15 274.373 1863.77 266.747 1853.97 258.698C1823.7 234.128 1789.17 206.168 1758.04 206.168C1752.08 206.168 1746.11 207.439 1740.14 209.558C1685.57 229.892 1693.24 287.505 1703.05 320.125C1709.02 340.035 1716.27 359.522 1723.51 378.585C1732.04 400.614 1740.99 423.49 1746.96 446.79C1750.8 460.769 1752.5 475.596 1754.21 490C1759.75 533.634 1764.87 575.149 1823.7 575.149C1828.39 575.149 1833.5 574.726 1838.62 574.302C1845.44 573.455 1850.98 572.607 1855.67 570.913C1871.45 565.829 1876.14 556.509 1882.96 542.106C1885.09 537.87 1887.65 532.786 1890.63 527.703C1895.32 519.654 1900.44 512.029 1905.55 504.403V502.285C1900.01 510.334 1894.47 518.383 1889.35 526.855C1886.37 531.939 1883.81 537.023 1881.68 541.259C1874.86 555.239 1870.17 564.558 1854.82 569.218C1850.13 570.489 1845.01 571.76 1838.19 572.184C1833.08 572.607 1827.96 573.031 1823.27 573.031C1765.72 573.031 1760.6 534.057 1755.06 488.729C1753.36 474.325 1751.22 459.498 1747.81 445.519C1741.84 422.219 1732.89 399.343 1724.37 377.315C1717.12 358.251 1709.44 338.764 1703.9 319.277C1694.52 287.082 1686.85 230.739 1740.57 210.405C1746.11 208.287 1752.08 207.439 1758.04 207.439C1788.74 207.439 1822.85 235.399 1853.11 259.546C1862.92 267.595 1872.3 275.22 1882.1 281.998C1889.35 287.082 1895.32 291.741 1900.01 295.131C1901.71 296.401 1903.85 297.672 1905.98 298.943V297.249C1904.27 295.978 1902.57 295.13 1900.86 293.86C1895.75 290.471 1889.78 286.234 1882.53 281.151Z" fill="#C4C4C4" fill-opacity="0.4"/>
<path d="M1883.38 318.43C1878.27 315.041 1871.87 310.381 1864.62 305.297C1854.39 298.096 1845.01 290.047 1834.78 281.998C1832.65 280.303 1830.09 278.185 1827.11 275.643C1810.06 261.24 1786.61 241.329 1764.87 241.329C1758.9 241.329 1753.36 243.024 1748.24 245.989C1710.72 268.865 1733.32 323.937 1746.96 356.557C1748.67 360.369 1749.94 364.182 1751.22 367.571C1760.18 390.447 1769.13 414.17 1775.52 438.741C1776.8 443.401 1778.08 448.908 1779.36 454.838C1785.33 481.527 1793.43 517.959 1813.89 531.092C1817.3 533.21 1820.71 534.481 1824.55 534.904C1825.83 534.904 1826.68 535.328 1827.96 535.328C1853.11 535.328 1877.84 497.625 1896.17 469.665C1899.58 464.582 1902.57 459.922 1905.12 456.109V453.991C1902.14 458.228 1898.73 463.311 1894.89 468.818C1876.99 496.354 1851.84 533.634 1827.53 533.634C1826.68 533.634 1825.4 533.633 1824.55 533.21C1821.14 532.786 1817.73 531.515 1814.32 529.397C1794.28 516.688 1786.18 480.256 1780.21 453.991C1778.93 448.06 1777.66 442.553 1776.38 437.893C1769.98 412.899 1760.6 389.176 1752.08 366.3C1750.8 362.911 1749.09 359.098 1747.81 355.286C1734.6 322.666 1712.43 268.442 1748.67 245.989C1753.36 243.024 1758.9 241.753 1764.44 241.753C1785.76 241.753 1808.78 261.24 1825.83 275.643C1828.39 277.762 1830.95 279.88 1833.5 281.998C1843.73 290.47 1853.54 298.096 1863.35 305.297C1870.17 310.381 1876.99 315.041 1882.1 318.43C1888.92 323.09 1895.32 327.326 1902.57 332.41C1903.42 332.833 1903.85 333.257 1904.7 333.681V331.986C1904.27 331.562 1903.85 331.139 1902.99 331.139C1897.02 327.326 1890.2 322.666 1883.38 318.43Z" fill="#C4C4C4" fill-opacity="0.4"/>
<path d="M1661.7 618.783C1664.25 621.748 1668.52 626.408 1680.03 627.255C1722.66 630.644 1787.03 636.151 1841.6 685.292L1842.03 685.716C1860.79 702.661 1875.71 723.843 1886.79 749.26C1889.78 756.038 1894.89 760.275 1900.44 760.275C1902.14 760.275 1903.42 759.851 1905.12 759.427V757.733C1903.42 758.58 1902.14 759.004 1900.44 759.004C1895.32 759.004 1890.63 755.191 1887.65 748.837C1876.56 723.419 1861.21 701.814 1842.46 684.869L1842.03 684.445C1787.46 634.881 1722.66 629.797 1680.03 626.408C1668.94 625.561 1664.68 621.325 1662.55 618.359C1657.01 611.157 1656.58 600.567 1657.01 597.178C1662.98 571.336 1670.22 539.14 1667.66 503.556C1662.98 443.824 1639.1 392.565 1615.65 342.577C1596.9 302.756 1576.01 257.427 1583.25 237.093C1596.47 200.237 1649.76 147.707 1672.35 126.95C1686.42 113.817 1703.48 107.039 1722.66 107.039C1733.74 107.039 1743.12 109.157 1749.09 111.275C1788.31 123.984 1843.73 152.791 1905.55 192.188V190.494C1843.73 151.096 1788.31 122.29 1749.52 110.004C1743.55 107.886 1733.74 105.768 1722.66 105.768C1703.05 105.768 1686 112.546 1671.5 126.102C1648.91 146.86 1595.62 199.814 1582.4 236.669C1574.73 257.851 1596.04 303.179 1614.8 343.424C1637.82 392.989 1662.12 444.248 1666.81 503.979C1669.37 539.141 1662.12 571.336 1656.15 597.178C1655.3 600.143 1656.15 611.581 1661.7 618.783Z" fill="#C4C4C4" fill-opacity="0.4"/>
<path d="M1742.27 580.656C1752.08 585.74 1765.29 588.282 1778.08 590.4C1787.46 592.094 1797.27 593.789 1805.37 596.754C1810.48 598.449 1816.02 601.414 1821.99 604.38C1834.36 610.311 1848 617.089 1860.79 617.089C1863.35 617.089 1865.48 616.665 1867.61 616.241C1868.03 616.241 1868.89 615.818 1869.31 615.818C1887.22 610.31 1897.02 587.858 1905.55 567.1V563.288V563.711C1897.02 584.893 1887.65 608.616 1869.31 614.123C1868.89 614.123 1868.03 614.547 1867.61 614.547C1865.48 614.97 1863.35 615.394 1860.79 615.394C1848.42 615.394 1834.78 608.616 1822.85 602.685C1816.88 599.72 1811.33 597.178 1806.22 595.06C1798.12 592.094 1788.31 590.4 1778.51 588.705C1765.72 586.587 1752.5 584.469 1743.12 578.962C1722.23 567.524 1724.37 546.343 1726.5 524.314C1727.35 515.418 1728.2 506.521 1727.78 498.472C1722.23 428.15 1695.8 371.807 1670.22 317.159C1658.71 292.589 1657.86 265.477 1667.66 240.906C1678.32 214.641 1701.34 193.036 1729.91 182.022C1738.86 178.633 1748.24 176.938 1757.62 176.938C1798.54 176.938 1837.34 208.287 1871.45 235.823C1881.25 243.448 1890.2 251.073 1899.16 257.428C1901.29 259.122 1903.42 260.393 1905.55 262.088V260.393C1903.85 259.122 1902.14 257.851 1900.01 256.58C1891.48 250.226 1882.1 243.024 1872.72 234.975C1838.62 207.016 1799.82 175.667 1758.04 175.667C1748.24 175.667 1738.86 177.362 1729.91 180.751C1700.92 191.765 1677.9 213.37 1666.81 240.059C1656.58 265.053 1657.43 292.165 1669.37 317.159C1694.95 371.384 1720.95 427.726 1726.5 498.049C1726.92 506.098 1726.07 514.994 1725.22 523.89C1722.66 546.342 1720.53 568.795 1742.27 580.656Z" fill="#C4C4C4" fill-opacity="0.4"/>
<path d="M1714.56 603.108C1723.09 605.227 1731.61 607.345 1740.14 609.039C1784.9 619.206 1823.27 628.103 1861.64 662.84L1862.49 663.687C1871.45 671.736 1878.27 675.549 1883.81 675.549C1884.66 675.549 1885.51 675.549 1886.37 675.125C1894.89 673.007 1898.73 661.569 1903.42 646.742C1904.27 644.624 1904.7 642.082 1905.55 639.964V635.728C1904.27 639.117 1902.99 642.93 1902.14 646.319C1897.88 660.722 1893.61 672.16 1885.94 673.854C1880.4 675.125 1873.15 671.313 1863.35 662.416L1862.49 661.569C1823.7 626.832 1784.9 617.935 1740.57 607.345C1732.47 605.65 1723.94 603.532 1714.99 601.414C1683.87 593.789 1688.98 564.558 1694.1 536.175C1696.23 523.89 1698.79 511.181 1697.93 500.59C1692.82 435.351 1667.67 381.551 1643.36 329.444C1640.38 323.09 1637.4 317.159 1634.41 311.228C1618.64 280.727 1605.42 254.462 1624.61 221.843C1639.1 197.272 1660.84 177.362 1682.16 158.298C1686 154.909 1689.83 151.52 1693.67 147.708C1701.77 140.082 1712.85 136.27 1726.5 136.27C1778.93 136.27 1859.94 191.765 1906.4 225.232V224.384C1859.51 190.918 1779.36 135.846 1726.5 135.846C1712.43 135.846 1700.92 139.659 1692.82 147.708C1688.98 151.097 1685.14 154.486 1681.73 158.298C1660.42 177.785 1638.68 197.696 1624.18 222.266C1604.57 255.309 1618.64 283.269 1633.99 312.923C1636.97 318.854 1639.95 324.784 1642.94 331.139C1667.24 383.245 1692.39 436.622 1697.51 501.861C1698.36 512.452 1696.23 525.161 1693.67 537.446C1687.7 565.405 1682.16 595.059 1714.56 603.108Z" fill="#C4C4C4" fill-opacity="0.4"/>
<path d="M1847.57 924.219C1853.11 927.609 1862.07 929.727 1872.72 929.727C1882.1 929.727 1893.61 928.032 1905.55 924.643V921.678C1893.61 925.49 1882.1 927.185 1872.72 927.185C1862.92 927.185 1854.39 925.49 1849.28 922.101C1824.12 906.003 1813.04 878.044 1801.53 848.39C1791.3 822.548 1781.07 796.284 1760.6 777.644V776.797H1759.75C1736.3 756.462 1704.75 746.295 1663.4 746.295C1622.9 746.295 1580.7 756.039 1546.59 763.664C1523.14 768.748 1503.11 773.408 1490.32 773.408C1482.64 773.408 1477.95 771.713 1476.25 768.748C1473.69 764.511 1475.82 756.462 1481.79 745.024C1511.21 691.647 1570.89 564.135 1566.63 511.605C1563.22 470.089 1543.18 426.879 1524 385.364C1495.86 324.785 1466.44 262.511 1487.76 203.203C1512.06 135.423 1618.64 14.2647 1694.52 3.67396C1698.79 3.25033 1703.9 2.82668 1708.59 2.82668C1758.04 2.82668 1830.09 32.0571 1905.55 74.42V71.4545C1830.09 29.0917 1758.04 0.284912 1708.59 0.284912C1703.48 0.284912 1698.36 0.70856 1694.1 1.13219C1617.36 11.7229 1509.5 134.152 1484.77 202.356C1463.03 262.935 1492.45 325.632 1521.01 386.634C1540.2 428.15 1560.23 470.513 1563.64 511.605C1567.48 558.628 1515.47 677.667 1479.23 743.754C1471.98 756.462 1470.28 764.935 1473.69 770.442C1476.25 774.678 1481.79 776.797 1490.32 776.797C1503.53 776.797 1524 772.137 1547.44 767.053C1581.55 759.428 1623.75 749.684 1663.4 749.684C1704.33 749.684 1735.02 759.428 1758.04 779.762C1778.08 797.978 1788.74 824.243 1798.55 850.084C1810.48 879.315 1821.99 907.698 1847.57 924.219Z" fill="#C4C4C4" fill-opacity="0.4"/>
<path d="M1559.38 708.592C1562.36 712.829 1570.04 714.947 1584.11 714.947C1593.06 714.947 1603.72 714.099 1616.08 713.252C1631.43 712.405 1648.91 711.134 1666.81 711.134C1723.94 711.134 1762.31 722.996 1787.89 749.261C1811.76 767.477 1824.98 797.131 1836.49 823.396C1850.56 855.168 1862.92 882.704 1889.78 882.704C1892.76 882.704 1895.75 882.28 1898.73 881.857C1900.86 881.433 1902.99 881.009 1905.12 880.162V878.044C1902.57 878.891 1900.44 879.315 1898.3 879.738C1895.32 880.162 1892.34 880.586 1889.78 880.586C1864.2 880.586 1852.26 853.473 1838.62 822.548C1827.11 796.284 1813.47 766.206 1789.59 747.566C1763.59 721.301 1724.79 709.016 1667.24 709.016C1649.33 709.016 1631.85 710.287 1616.51 711.134C1604.14 711.981 1593.49 712.829 1584.53 712.829C1571.32 712.829 1564.07 711.134 1561.51 707.321C1560.23 705.203 1560.23 702.661 1561.51 699.272C1588.8 627.256 1611.39 536.175 1609.26 507.792C1605.42 458.651 1583.68 412.052 1562.79 367.147C1537.21 312.076 1512.91 260.393 1528.26 217.183C1549.57 157.028 1647.63 52.3913 1700.92 45.1896C1703.48 44.7659 1706.46 44.766 1709.44 44.766C1750.8 44.766 1823.7 73.9963 1906.4 122.714V120.172C1824.12 71.8782 1751.22 42.6478 1709.44 42.6478C1706.46 42.6478 1703.48 42.6478 1700.49 43.0714C1646.78 50.2731 1547.87 155.757 1526.13 216.336C1510.35 260.393 1535.08 312.923 1560.66 367.995C1581.55 412.899 1603.29 459.075 1607.13 507.792C1609.26 532.363 1588.8 620.901 1559.81 698.425C1557.67 702.661 1557.67 706.05 1559.38 708.592Z" fill="#C4C4C4" fill-opacity="0.4"/>
<path d="M1623.75 653.521C1631.85 664.959 1648.48 666.23 1671.5 667.924C1674.06 667.924 1676.62 668.348 1679.18 668.348C1686.42 668.771 1694.1 669.195 1702.2 669.619C1739.71 670.889 1782.77 672.16 1821.14 707.322L1821.57 707.745C1842.88 726.385 1855.67 759.004 1866.76 788.235C1878.27 817.465 1887.65 842.459 1903.42 842.459C1903.85 842.459 1904.27 842.459 1904.7 842.459V841.188C1904.27 841.188 1903.85 841.188 1903.42 841.188C1888.92 841.188 1879.12 816.194 1868.04 787.811C1856.95 758.581 1844.16 725.961 1822.42 706.898L1821.99 706.474C1783.2 671.313 1740.14 669.618 1702.2 668.348C1694.1 667.924 1686.42 667.924 1679.18 667.077C1676.62 666.653 1674.06 666.653 1671.5 666.653C1648.48 664.959 1632.28 663.688 1624.61 652.673C1617.36 642.506 1618.64 623.019 1628.02 590.4C1636.97 559.899 1639.95 532.363 1637.82 505.674C1633.56 451.026 1610.54 402.309 1588.37 354.862C1565.35 305.298 1543.61 258.698 1554.69 226.926C1573.87 173.549 1665.53 79.5034 1703.48 74.4199C1704.33 74.4199 1705.61 73.9962 1708.17 73.9962C1740.14 73.9962 1811.76 100.261 1905.12 157.028V155.333C1812.19 98.5667 1740.14 72.7253 1708.17 72.7253C1706.03 72.7253 1704.33 72.7254 1703.48 73.149C1665.11 78.2325 1572.6 173.125 1553.41 226.503C1541.9 259.122 1563.64 305.721 1587.09 355.71C1609.26 402.732 1631.85 451.873 1636.12 506.098C1638.25 532.786 1634.84 560.322 1626.31 590.4C1617.36 623.867 1616.51 642.506 1623.75 653.521Z" fill="#C4C4C4" fill-opacity="0.4"/>
</svg>
